<svg version="1.1" id="Layer_1" xmlns="http://www.w3.org/2000/svg" xmlns:xlink="http://www.w3.org/1999/xlink" x="0px" y="0px"
	 width="100%" viewBox="0 0 1024 1024" enable-background="new 0 0 1024 1024" xml:space="preserve">
<path fill="#FDFDFC" opacity="1.000000" stroke="none" 
	d="
M575.000000,1025.000000 
	C383.333344,1025.000000 192.166672,1025.000000 1.000000,1025.000000 
	C1.000000,683.666687 1.000000,342.333344 1.000000,1.000000 
	C342.333344,1.000000 683.666687,1.000000 1025.000000,1.000000 
	C1025.000000,342.333344 1025.000000,683.666687 1025.000000,1025.000000 
	C875.166687,1025.000000 725.333313,1025.000000 575.000000,1025.000000 
M666.071960,281.809845 
	C666.071960,281.809845 666.346252,281.674255 666.173462,281.158508 
	C665.854675,281.003296 665.535828,280.848083 665.171692,280.805084 
	C665.171692,280.805084 665.288269,280.772644 665.096863,280.250763 
	C664.773193,280.091522 664.449585,279.932281 664.109375,279.892853 
	C664.109375,279.892853 664.199341,279.812012 663.918945,279.249268 
	C663.063599,278.699677 662.208191,278.150085 661.212708,277.568604 
	C661.212708,277.568604 661.336243,277.641998 661.171448,277.136383 
	C660.858948,276.986084 660.546509,276.835785 660.276611,276.840698 
	C660.276611,276.840698 660.304749,276.682220 660.065002,276.135468 
	C659.401855,275.716766 658.738708,275.298035 658.013977,274.966309 
	C658.013977,274.966309 658.109863,274.919708 657.829224,274.384491 
	C657.294067,274.135071 656.758911,273.885681 656.246338,273.775787 
	C656.246338,273.775787 656.312988,273.651154 656.020081,273.068878 
	C650.746033,269.603485 645.471985,266.138123 640.181580,262.805908 
	C640.181580,262.805908 640.280090,262.714783 639.984009,262.125305 
	C638.432068,261.282074 636.880066,260.438812 635.195190,259.603851 
	C635.195190,259.603851 635.313416,259.665192 635.116699,259.150970 
	C634.777283,259.032196 634.437805,258.913422 634.070679,258.899750 
	C634.070679,258.899750 634.165405,258.846375 633.788574,258.285461 
	C622.328247,252.423721 610.867859,246.561981 598.917725,240.182785 
	C585.273743,235.258591 571.924683,229.131378 557.915405,225.697540 
	C537.858765,220.781448 517.319824,217.833282 496.266327,213.681259 
	C462.257263,210.749878 428.577393,212.557678 394.854645,220.244232 
	C395.247986,222.781235 395.561920,224.805954 395.913147,227.071182 
	C397.733551,226.821518 399.022217,226.624084 400.316071,226.470490 
	C418.788605,224.277481 437.221771,220.842636 455.745972,220.248032 
	C474.783752,219.636948 493.910553,221.800217 513.782593,222.979721 
	C518.508362,223.841293 523.246155,224.642014 527.957825,225.574829 
	C550.277344,229.993652 571.782288,237.067215 593.330872,245.989273 
	C598.836914,248.420975 604.342957,250.852661 609.919434,253.174286 
	C609.919434,253.174286 609.796753,253.219269 610.180603,253.760345 
	C611.385803,254.285278 612.591003,254.810196 613.956726,255.188568 
	C613.956726,255.188568 613.762146,255.285431 614.070618,255.807648 
	C614.637695,255.998505 615.204834,256.189362 615.850952,256.266815 
	C615.850952,256.266815 615.712891,256.259735 615.939087,256.762177 
	C616.277100,256.891632 616.615051,257.021088 617.359985,257.677979 
	C626.411011,262.774841 635.540527,267.759552 642.899658,275.386627 
	C641.802063,275.598175 640.921021,275.417542 640.143188,275.029846 
	C621.797424,265.886536 602.402100,259.634033 582.659241,254.432877 
	C573.233093,251.949585 563.644348,250.083054 554.294556,247.159363 
	C554.465515,244.476288 557.466003,240.472855 552.049866,240.051346 
	C536.410828,238.834229 520.740845,238.014786 504.370270,236.673370 
	C482.628357,237.787537 460.790527,237.981537 439.167419,240.235352 
	C408.113800,243.472122 378.623383,252.899292 350.940216,267.401794 
	C319.304169,283.975128 291.869659,305.909180 269.779755,334.076355 
	C261.801910,344.249054 254.958038,355.315765 247.706223,366.048523 
	C246.477463,367.867096 244.825806,370.020386 248.178528,371.814758 
	C251.039490,373.345947 252.515900,372.655151 254.060577,369.831909 
	C256.528625,365.321014 259.412933,361.020752 262.332458,356.776733 
	C280.128876,330.906860 301.623932,308.661743 327.513000,290.790894 
	C355.822388,271.249329 386.811035,258.117645 420.671143,251.713226 
	C444.961517,247.118851 469.521576,245.769150 494.892426,244.966858 
	C496.535278,245.259491 498.178101,245.552124 498.999054,245.925323 
	C497.576599,246.266663 496.169037,246.815079 494.729492,246.918488 
	C470.331818,248.671295 446.613525,253.610062 423.650482,262.057831 
	C386.329102,275.787811 351.440887,293.895142 321.434845,320.358978 
	C288.796478,349.144409 264.793213,384.177094 247.682877,424.082001 
	C234.357086,455.160522 226.956482,487.588135 224.826065,522.020813 
	C224.971054,535.322021 225.116043,548.623230 225.134628,562.705261 
	C225.278351,563.473694 225.422058,564.242065 225.401169,565.809204 
	C225.627151,568.376221 225.853134,570.943237 225.476562,572.981812 
	C218.496292,552.583374 214.009842,531.707520 212.562729,510.136566 
	C210.536957,479.939880 212.632309,450.306091 222.835831,421.543610 
	C224.140625,417.865540 225.390808,415.402405 229.965652,414.649109 
	C236.291138,413.607513 239.713593,406.338623 237.745941,400.173157 
	C235.982681,394.648163 228.888840,391.335785 222.984344,393.280487 
	C217.179245,395.192444 213.475632,401.721313 216.215012,407.234070 
	C218.557938,411.948944 217.689346,415.640839 215.672104,419.802002 
	C214.517303,422.184113 213.638657,424.731201 212.904297,427.281372 
	C202.728394,462.617615 201.783142,498.402740 207.592224,534.552002 
	C211.528015,559.044006 219.615143,582.241150 229.084076,605.833313 
	C234.761307,628.773254 244.641205,649.916931 256.932404,669.958374 
	C260.168488,675.235046 264.413971,679.892578 268.267059,685.699707 
	C279.449036,701.720215 292.827454,715.700684 307.618561,728.261780 
	C307.618561,728.261780 307.763000,728.220459 308.385773,728.725586 
	C308.869873,728.949402 309.353973,729.173157 310.034821,729.999023 
	C320.690796,738.001160 331.346771,746.003235 342.203094,754.477844 
	C342.496246,754.636230 342.789368,754.794678 343.541412,755.080811 
	C343.541412,755.080811 343.973389,755.281616 344.254913,755.649048 
	C344.505829,755.867126 344.796814,755.960571 345.684204,756.015015 
	C346.125427,756.338379 346.566681,756.661743 347.009552,757.741577 
	C349.003937,758.826111 350.998291,759.910706 353.001221,760.997559 
	C353.001221,760.997559 353.005188,761.005432 353.110382,761.703918 
	C354.761536,762.453064 356.412720,763.202209 358.586182,764.132446 
	C359.056427,764.422424 359.526703,764.712341 360.112610,765.699890 
	C361.110992,766.101013 362.109375,766.502136 363.778748,767.043884 
	C365.520599,768.037109 367.262451,769.030273 369.308289,770.529968 
	C369.858398,770.692444 370.408508,770.854980 371.507660,771.170898 
	C372.008728,771.442200 372.509796,771.713501 373.087860,772.726990 
	C374.517517,773.374817 375.947144,774.022644 377.922363,774.746521 
	C378.270935,774.860229 378.619537,774.973999 379.059631,775.754883 
	C380.373779,776.165466 381.687958,776.575989 383.666290,777.079651 
	C384.437103,777.519226 385.207886,777.958740 386.231415,778.711304 
	C386.444092,778.896362 386.691376,778.993347 387.459045,779.093140 
	C387.459045,779.093140 387.921753,779.266663 388.115692,779.900024 
	C388.886566,780.138794 389.657440,780.377502 391.065308,780.727234 
	C392.047424,781.150879 393.029572,781.574585 394.056030,782.582275 
	C394.705017,782.706055 395.354004,782.829834 396.649689,783.018066 
	C397.065643,783.136047 397.481628,783.254028 398.114410,783.981567 
	C399.096069,784.298523 400.077759,784.615417 401.001587,785.000000 
	C401.001587,785.000000 401.046753,784.923340 401.336609,785.584229 
	C402.647614,785.974121 403.958618,786.364075 405.960999,786.900635 
	C407.955383,787.660095 409.949738,788.419495 412.120667,789.860352 
	C413.175140,790.150818 414.229614,790.441284 415.892334,790.801147 
	C416.638947,791.120361 417.385590,791.439514 418.178680,792.159058 
	C418.440674,792.072449 418.702667,791.985840 419.648071,791.974060 
	C420.087067,792.103699 420.526031,792.233398 421.239990,792.694092 
	C421.471832,792.889343 421.739349,792.983643 422.496338,793.044128 
	C422.496338,793.044128 422.931824,793.188293 423.109741,793.843750 
	C425.736572,794.571777 428.363373,795.299805 431.697296,796.095032 
	C433.475555,796.711548 435.253815,797.328125 437.297424,798.441528 
	C437.648468,798.526611 437.999481,798.611755 439.074402,798.732117 
	C440.021637,798.912476 440.968842,799.092834 442.078857,799.872559 
	C443.391113,800.204834 444.703400,800.537109 446.679138,800.919189 
	C447.493225,801.205994 448.307312,801.492798 449.307617,802.465271 
	C450.543488,803.664490 451.779358,804.863708 452.194855,806.086853 
	C441.780884,803.564636 431.366913,801.042480 421.008972,798.533875 
	C418.161255,805.918335 418.083374,806.282959 425.131561,807.788635 
	C443.984985,811.816101 462.778992,816.440125 481.836090,819.131104 
	C525.300903,825.268555 568.178772,821.299866 610.286499,808.968628 
	C612.128540,808.429260 613.892578,807.623840 616.198364,806.751099 
	C614.950195,803.799683 613.935242,801.399780 613.310181,798.367493 
	C619.781494,796.217041 626.322388,794.254333 632.712341,791.884521 
	C665.924377,779.567444 696.427612,762.361694 724.277710,740.503052 
	C730.609131,735.533752 736.495056,729.996887 742.711182,724.612793 
	C740.744202,722.287170 739.389343,720.685303 738.005127,719.048767 
	C737.159485,719.561523 736.563171,719.852966 736.048828,720.250427 
	C735.127319,720.962769 734.237915,721.719360 733.365051,722.491333 
	C711.155945,742.134949 687.012512,759.041443 660.044556,771.372131 
	C643.129272,779.106384 625.435974,785.139038 607.228027,791.884583 
	C597.531921,793.835510 587.864990,795.950623 578.130127,797.684021 
	C570.693481,799.008179 563.170715,799.848999 554.819214,800.749634 
	C551.547546,800.865845 548.275940,800.982056 544.075439,800.956299 
	C533.380554,800.819824 522.685669,800.683350 511.352966,800.316162 
	C510.910797,800.370178 510.468658,800.424194 509.202667,800.188354 
	C499.964142,799.176758 490.592957,798.827515 481.515747,797.010193 
	C464.625977,793.628601 447.907379,789.391846 430.856415,784.907043 
	C428.835571,784.333130 426.814728,783.759216 424.189240,783.134338 
	C423.798279,783.032837 423.407288,782.931335 422.659851,782.236450 
	C421.361664,781.893494 420.063477,781.550537 418.077515,781.152710 
	C417.427277,780.932434 416.777039,780.712158 415.892303,779.928162 
	C415.163177,779.697510 414.434082,779.466797 413.047302,779.169312 
	C412.419647,778.973083 411.791962,778.776855 411.279633,777.967163 
	C412.236206,777.598206 413.192810,777.229187 414.963989,776.872742 
	C424.343597,778.384583 433.723236,779.896423 443.056793,781.400818 
	C444.404785,773.711304 444.387604,773.805603 438.710571,772.770508 
	C413.713257,768.212891 388.862305,763.006531 365.359497,753.000977 
	C356.068787,749.045715 347.121460,744.283875 337.573456,739.724243 
	C337.573456,739.724243 337.103088,739.782715 337.092712,739.880310 
	C337.092712,739.880310 337.184387,739.845215 337.022308,739.193726 
	C334.875885,737.677917 332.727295,736.165222 330.583496,734.645752 
	C324.523499,730.350708 318.465454,726.052856 312.100708,721.157898 
	C311.573792,720.765076 311.046875,720.372192 310.564270,719.758423 
	C310.564270,719.758423 310.229523,719.718994 309.668915,719.214722 
	C309.230438,718.982483 308.686493,718.847717 308.368744,718.503906 
	C297.611176,706.864807 286.895905,695.186462 276.100037,683.583130 
	C275.146667,682.558411 273.687714,682.004211 272.502991,680.446289 
	C271.805969,679.152649 271.160950,677.827698 270.403595,676.570374 
	C264.939240,667.498352 259.408813,658.465637 254.023315,649.347229 
	C253.294052,648.112549 253.255325,646.470093 253.599075,645.036926 
	C265.282959,658.058228 276.619385,671.432678 290.564880,682.217651 
	C295.182678,676.754517 295.096161,676.842529 290.524567,672.349365 
	C283.892914,665.831299 277.050568,659.479065 270.921692,652.507935 
	C257.608948,637.365601 245.428741,621.407837 238.634140,601.239746 
	C236.578995,587.929993 233.510544,574.686035 232.641800,561.299316 
	C228.601074,499.036102 242.088135,440.848694 275.059540,387.571228 
	C279.481750,380.425568 284.926697,373.912811 290.002502,367.815491 
	C289.160583,369.412872 288.396240,371.057007 287.465240,372.600647 
	C269.286438,402.741455 257.665161,435.253693 251.940842,470.778839 
	C248.805664,489.245392 248.234756,507.846375 248.955170,526.522217 
	C250.556656,568.037903 261.962830,606.884338 281.253998,643.465881 
	C295.798798,671.046997 315.693237,694.421143 339.346741,714.604919 
	C386.089172,754.490723 440.636963,774.318604 501.658569,776.910400 
	C533.274597,778.253296 564.051575,773.227417 593.930847,762.831848 
	C642.854675,745.810425 683.268799,716.794922 716.146057,676.117920 
	C716.866516,675.453979 717.677246,674.864441 718.293945,674.115112 
	C730.103821,659.767334 739.033997,643.654419 746.904785,626.929993 
	C757.162659,605.133240 763.720947,582.235840 767.550293,558.444763 
	C771.551270,533.587769 771.921875,508.665985 768.489807,483.862762 
	C763.606384,448.571350 751.800354,415.469788 733.931396,384.608368 
	C731.181030,379.858185 727.838257,375.451019 724.740540,370.842194 
	C719.445312,374.935059 719.310364,375.678894 721.525391,379.632935 
	C725.985168,387.593994 730.361084,395.602264 734.739990,403.608398 
	C751.071106,433.467407 759.219299,465.830902 761.840759,499.390320 
	C764.532166,533.844482 760.594849,567.791931 748.888123,600.599609 
	C742.262939,619.166382 733.769714,636.792480 723.112244,653.366821 
	C718.911682,659.899475 714.530579,666.316040 709.697449,673.239563 
	C686.703064,701.064819 659.355530,723.728760 627.396484,740.391479 
	C568.572510,771.061096 506.692200,777.635986 442.682678,760.761292 
	C336.839783,732.858215 264.444977,642.711975 257.027588,531.354736 
	C255.871857,514.003845 257.612091,496.460114 258.371216,478.317352 
	C261.557251,456.336700 266.799103,434.894897 274.989227,414.205139 
	C282.250641,395.861389 291.929230,378.814636 303.251038,362.183899 
	C304.832123,360.868011 306.743713,359.800323 307.945740,358.199738 
	C334.551971,322.772034 367.209076,294.563416 408.132294,277.155273 
	C425.797577,269.640717 444.646301,264.908173 463.657837,258.970947 
	C464.107361,258.855255 464.556915,258.739532 465.800659,258.696045 
	C474.201660,257.496429 482.570129,255.954712 491.008942,255.153000 
	C544.000305,250.118530 594.013916,261.116241 641.569214,284.122406 
	C654.562439,290.408264 666.869446,298.112488 679.889404,305.724152 
	C681.593872,306.802032 683.298279,307.879883 685.399231,309.493927 
	C721.482056,337.446899 747.859558,372.947601 766.041016,414.547119 
	C771.749146,427.607574 775.778809,441.401642 780.591614,455.590393 
	C781.743469,461.464020 782.850525,467.346863 784.059875,473.208618 
	C785.258728,479.019501 786.560608,484.809143 787.666931,490.739014 
	C787.666931,490.739014 787.729858,490.928131 787.764282,491.595490 
	C788.171753,492.070587 788.579285,492.545685 789.452881,493.725922 
	C789.690430,495.013611 790.088440,496.294769 790.141479,497.589996 
	C790.976746,517.996460 789.803955,538.327515 786.318359,558.416199 
	C783.834351,572.732727 780.153381,586.841492 776.534424,601.560669 
	C774.832092,608.005371 773.129761,614.450134 771.012817,621.530273 
	C770.447144,622.913086 769.885010,624.297302 769.315308,625.678406 
	C759.230286,650.128784 745.931274,672.703003 729.130737,693.918152 
	C725.575378,697.871216 722.020020,701.824280 717.872803,706.027405 
	C657.513550,762.433716 584.506714,784.338074 503.639801,784.166260 
	C502.424652,790.757874 502.475739,790.734619 508.473938,790.961060 
	C534.937378,791.960144 560.980713,788.896851 586.729431,782.959412 
	C637.743835,771.196167 683.085327,747.826111 724.744080,715.549255 
	C730.304871,710.870178 735.865662,706.191101 742.042175,701.253174 
	C745.710815,697.501038 749.379517,693.748840 753.221558,689.808899 
	C753.221558,689.808899 753.141663,689.566101 753.718628,689.279358 
	C753.888062,688.908752 754.057495,688.538147 754.231018,688.300842 
	C754.231018,688.300842 754.364197,688.309692 754.977600,688.168457 
	C755.734009,687.185608 756.490356,686.202698 757.199463,685.121765 
	C757.199463,685.121765 757.112671,685.187500 757.702209,685.050171 
	C757.951721,684.739075 758.201294,684.427979 758.887146,683.877197 
	C759.289673,683.360901 759.692139,682.844543 760.594360,682.037842 
	C760.774353,681.703979 760.954285,681.370056 761.709351,680.716309 
	C782.188721,657.541077 798.440308,631.775696 809.084412,602.656311 
	C818.453613,577.024536 824.431641,550.670898 825.147522,523.267334 
	C825.270203,518.572937 825.516357,513.992493 831.139893,512.057434 
	C832.327393,511.648834 833.232300,509.951202 833.928223,508.664093 
	C836.729248,503.483673 835.256287,497.145721 830.652588,494.009521 
	C825.161072,490.268494 818.325317,490.882538 814.337463,495.475067 
	C810.513977,499.878265 810.916870,507.063202 814.860413,512.061462 
	C816.136230,513.678345 817.299133,516.099731 817.126465,518.028931 
	C815.942139,531.263855 815.000061,544.566406 812.844177,557.660156 
	C805.415161,602.779541 784.785400,641.554077 754.801758,675.640320 
	C753.853027,676.718872 752.275574,677.244263 750.940063,677.313110 
	C759.249512,661.115662 767.684265,644.980103 775.750244,628.662354 
	C777.165955,625.798279 778.356445,624.312866 781.714294,624.037659 
	C788.907349,623.447998 792.888611,618.591003 793.041687,611.395508 
	C793.171143,605.310669 790.852295,600.535339 786.401306,596.333069 
	C788.317444,586.567993 790.233582,576.802917 792.062805,567.044800 
	C792.062805,567.044800 792.092651,567.126648 792.655457,566.839478 
	C792.806885,565.233215 792.958313,563.626892 793.031555,562.018066 
	C793.031555,562.018066 793.064575,562.089050 793.643494,561.710510 
	C794.056885,557.141724 794.470215,552.572998 795.011780,547.578857 
	C795.011780,547.578857 795.051880,547.136353 795.669983,546.748840 
	C796.372620,540.215637 797.390259,533.698547 797.724548,527.146545 
	C799.354797,495.194763 796.762268,463.590271 789.888306,432.309448 
	C779.701294,385.952393 761.765198,343.166351 732.278625,305.612244 
	C730.975647,303.952728 729.478638,302.445648 727.800354,300.562805 
	C725.893860,302.230316 724.342285,303.587463 722.633118,305.082397 
	C750.608765,340.454956 769.163269,379.825684 779.685913,423.875275 
	C780.061707,424.789093 780.437500,425.702911 780.598999,426.661041 
	C780.598999,426.661041 780.584045,426.879272 780.526245,427.434937 
	C780.379517,428.076172 780.232727,428.717438 779.830383,428.751678 
	C768.387939,395.697174 750.379333,366.463776 727.885071,339.885834 
	C715.509888,325.263977 701.847839,311.978271 685.667480,300.454407 
	C681.223450,295.838501 676.779480,291.222626 672.307312,286.559357 
	C672.307312,286.559357 672.361938,286.551788 672.102295,285.967834 
	C670.569702,284.824860 669.037048,283.681915 667.428040,282.565155 
	C667.428040,282.565155 667.371094,282.507935 667.216370,282.030640 
	C666.917053,281.896637 666.617798,281.762634 666.071960,281.809845 
M519.722656,459.500153 
	C519.705017,449.837006 520.122498,440.148926 519.571167,430.516327 
	C518.670837,414.784180 525.574585,402.865540 536.849304,392.970398 
	C545.230774,385.614471 555.183228,381.233154 566.327759,380.921387 
	C591.720032,380.211121 617.126709,380.017365 642.357971,379.616425 
	C640.764038,387.868530 634.266113,394.619110 624.789490,396.901245 
	C621.569824,397.676605 618.205383,397.833862 614.960327,398.523956 
	C609.634644,399.656464 607.384705,402.811798 607.772095,408.208832 
	C608.256653,414.959320 613.014832,418.513611 620.316040,417.579041 
	C645.072632,414.410187 662.968445,396.806488 666.974731,371.117523 
	C667.989685,364.609436 667.728149,357.902252 668.113708,350.056610 
	C658.721924,356.381775 650.054688,359.136627 640.801880,359.953552 
	C634.501038,360.509888 628.167969,360.875275 621.844177,360.964142 
	C604.848633,361.203033 587.849487,361.179504 570.853394,361.389191 
	C555.004883,361.584747 539.860229,364.798615 527.431213,375.149384 
	C520.800049,380.671692 515.441101,387.721588 509.170898,394.443359 
	C509.912384,394.593964 509.673553,394.617584 509.603882,394.520203 
	C508.830536,393.439667 508.050476,392.361389 507.334167,391.242889 
	C496.702820,374.642975 481.272919,365.294098 462.104736,362.259827 
	C454.250946,361.016602 446.169189,361.029114 438.182648,360.850891 
	C425.357300,360.564697 412.520355,360.773132 399.696625,360.445343 
	C384.227142,360.049927 368.772675,359.286255 355.312347,349.300629 
	C354.960114,352.082214 354.677887,354.056427 354.464142,356.038025 
	C351.880585,379.988312 364.921204,403.802368 385.965607,412.872284 
	C389.364990,414.337402 390.195923,416.085602 390.192413,419.467133 
	C390.164337,446.630432 390.292908,473.793915 390.391327,500.957306 
	C390.475861,524.287598 390.345642,547.621887 390.749542,570.946777 
	C391.139435,593.459717 408.646332,610.097656 430.251770,609.101746 
	C449.691406,608.205750 465.841675,590.694092 465.904419,569.718018 
	C466.042938,523.389771 465.909912,477.060547 465.762268,430.732086 
	C465.753571,428.000885 465.174164,424.993103 463.929230,422.597992 
	C460.584045,416.162292 451.067261,415.879578 447.473785,422.161804 
	C446.075348,424.606628 445.507324,427.845428 445.506439,430.722900 
	C445.492493,475.884399 445.637360,521.045898 445.727478,566.207458 
	C445.732788,568.870789 445.810822,571.564209 445.465454,574.192444 
	C444.217224,583.691589 436.881897,589.629028 426.938904,589.377686 
	C417.613800,589.141968 411.663879,583.500122 410.664764,573.846985 
	C410.442413,571.699036 410.411102,569.523987 410.410522,567.361450 
	C410.397034,516.200134 410.440918,465.038788 410.367737,413.877594 
	C410.351562,402.550781 412.678131,398.687286 396.757507,396.688843 
	C386.101074,395.351166 378.522156,386.488251 377.554688,376.407715 
	C395.830688,382.289001 414.550995,380.303467 433.130920,380.484375 
	C439.794312,380.549225 446.467346,380.474396 453.118378,380.811218 
	C481.586609,382.252960 499.380157,405.613007 499.294800,429.510223 
	C499.021149,506.165344 499.550568,582.823303 499.749237,659.480225 
	C499.752716,660.817749 499.495483,662.155945 499.356171,663.531006 
	C498.589569,663.386536 498.396362,663.409546 498.315063,663.325012 
	C497.854126,662.845520 497.380737,662.369873 496.982422,661.839722 
	C488.177338,650.119507 476.569305,644.438416 461.793610,644.218262 
	C450.331848,644.047485 438.775391,643.450745 427.457520,641.742004 
	C399.925415,637.585266 379.897308,622.799927 368.406708,597.202881 
	C362.504181,584.054016 360.930939,569.958496 360.889496,555.719543 
	C360.765839,513.224243 360.823883,470.728394 360.751221,428.232849 
	C360.746124,425.257324 360.629242,422.186615 359.900391,419.329529 
	C358.736298,414.766144 354.225067,411.714813 349.820770,411.909668 
	C345.373993,412.106384 341.635315,415.518127 340.752136,420.433075 
	C340.401733,422.383057 340.363098,424.409027 340.367981,426.399963 
	C340.476288,470.394348 340.019684,514.400696 340.910126,558.379639 
	C341.760773,600.394409 359.282806,633.151367 397.941467,652.653687 
	C416.635925,662.084473 436.884552,665.357483 457.456940,665.746704 
	C477.790588,666.131226 492.761047,674.952454 503.950592,691.294739 
	C506.257385,694.663757 508.474091,698.094482 510.535461,701.200134 
	C517.627380,693.097290 524.373901,685.127319 531.409363,677.421204 
	C539.145020,668.948181 549.036621,665.396362 560.412476,665.020447 
	C570.058350,664.701721 579.753174,664.281616 589.306580,663.007935 
	C644.786377,655.611389 683.736450,611.541748 684.073547,555.625854 
	C684.336792,511.965271 684.134033,468.301849 684.127502,424.639709 
	C684.127258,423.142029 684.183228,421.612396 683.914856,420.152466 
	C682.998474,415.168060 678.978882,411.677429 674.259338,411.603729 
	C669.364929,411.527283 665.591003,414.683716 664.596741,419.926239 
	C664.228027,421.870178 664.184021,423.898193 664.189758,425.887299 
	C664.296448,462.883087 664.556274,499.878967 664.488342,536.874329 
	C664.467834,548.010803 664.304626,559.240723 662.909973,570.263794 
	C658.442993,605.569031 633.515564,633.651489 598.774170,641.883545 
	C586.226135,644.856934 573.149475,646.008667 560.238281,646.928833 
	C546.315063,647.921082 532.994568,649.591797 522.797302,660.468994 
	C521.999817,661.319702 521.056702,662.033875 519.722656,663.218872 
	C519.722656,595.139771 519.722656,527.819946 519.722656,459.500153 
M551.510803,422.824097 
	C547.120239,426.408142 546.882263,431.208862 548.293579,436.018372 
	C549.573242,440.379150 553.553772,440.918854 557.555908,441.328705 
	C570.519470,442.656250 582.626831,446.622253 593.369690,454.120453 
	C625.431152,476.498322 635.941589,523.202209 616.516846,558.770630 
	C603.612793,582.399170 583.083618,594.583374 556.328064,596.595276 
	C549.231140,597.128845 546.246033,600.845764 546.803467,607.787231 
	C547.264160,613.524353 550.841614,616.272705 557.683350,615.958252 
	C569.094116,615.433838 580.097107,613.123108 590.541565,608.352173 
	C630.261292,590.208374 652.375122,546.409363 644.208374,501.997803 
	C636.587952,460.557251 607.547424,430.398804 567.321106,422.604309 
	C562.430237,421.656616 557.209839,422.409576 551.510803,422.824097 
M546.737305,208.874878 
	C534.184143,207.380814 521.645386,205.746155 509.071472,204.453873 
	C503.069458,203.837036 502.839722,204.372467 503.695770,210.893280 
	C503.972961,211.071503 504.236664,211.378464 504.529388,211.409180 
	C512.467041,212.242325 520.414795,212.983047 528.346619,213.867233 
	C580.133118,219.640045 628.860657,234.846436 673.767456,261.530518 
	C680.662964,265.627899 688.281372,268.787567 691.406555,277.859528 
	C693.507690,283.958649 701.959961,285.334930 707.316040,282.039886 
	C712.249512,279.004761 713.971313,272.353149 711.179016,267.116791 
	C708.247314,261.619141 700.738281,258.963470 695.253174,262.197693 
	C692.328247,263.922333 690.661682,263.240021 688.235779,261.695953 
	C645.079224,234.226990 598.084106,216.949646 546.737305,208.874878 
z"/>
<path fill="#060606" opacity="1.000000" stroke="none" 
	d="
M519.722656,460.000183 
	C519.722656,527.819946 519.722656,595.139771 519.722656,663.218872 
	C521.056702,662.033875 521.999817,661.319702 522.797302,660.468994 
	C532.994568,649.591797 546.315063,647.921082 560.238281,646.928833 
	C573.149475,646.008667 586.226135,644.856934 598.774170,641.883545 
	C633.515564,633.651489 658.442993,605.569031 662.909973,570.263794 
	C664.304626,559.240723 664.467834,548.010803 664.488342,536.874329 
	C664.556274,499.878967 664.296448,462.883087 664.189758,425.887299 
	C664.184021,423.898193 664.228027,421.870178 664.596741,419.926239 
	C665.591003,414.683716 669.364929,411.527283 674.259338,411.603729 
	C678.978882,411.677429 682.998474,415.168060 683.914856,420.152466 
	C684.183228,421.612396 684.127258,423.142029 684.127502,424.639709 
	C684.134033,468.301849 684.336792,511.965271 684.073547,555.625854 
	C683.736450,611.541748 644.786377,655.611389 589.306580,663.007935 
	C579.753174,664.281616 570.058350,664.701721 560.412476,665.020447 
	C549.036621,665.396362 539.145020,668.948181 531.409363,677.421204 
	C524.373901,685.127319 517.627380,693.097290 510.535461,701.200134 
	C508.474091,698.094482 506.257385,694.663757 503.950592,691.294739 
	C492.761047,674.952454 477.790588,666.131226 457.456940,665.746704 
	C436.884552,665.357483 416.635925,662.084473 397.941467,652.653687 
	C359.282806,633.151367 341.760773,600.394409 340.910126,558.379639 
	C340.019684,514.400696 340.476288,470.394348 340.367981,426.399963 
	C340.363098,424.409027 340.401733,422.383057 340.752136,420.433075 
	C341.635315,415.518127 345.373993,412.106384 349.820770,411.909668 
	C354.225067,411.714813 358.736298,414.766144 359.900391,419.329529 
	C360.629242,422.186615 360.746124,425.257324 360.751221,428.232849 
	C360.823883,470.728394 360.765839,513.224243 360.889496,555.719543 
	C360.930939,569.958496 362.504181,584.054016 368.406708,597.202881 
	C379.897308,622.799927 399.925415,637.585266 427.457520,641.742004 
	C438.775391,643.450745 450.331848,644.047485 461.793610,644.218262 
	C476.569305,644.438416 488.177338,650.119507 496.982422,661.839722 
	C497.380737,662.369873 497.854126,662.845520 498.315063,663.325012 
	C498.396362,663.409546 498.589569,663.386536 499.356171,663.531006 
	C499.495483,662.155945 499.752716,660.817749 499.749237,659.480225 
	C499.550568,582.823303 499.021149,506.165344 499.294800,429.510223 
	C499.380157,405.613007 481.586609,382.252960 453.118378,380.811218 
	C446.467346,380.474396 439.794312,380.549225 433.130920,380.484375 
	C414.550995,380.303467 395.830688,382.289001 377.554688,376.407715 
	C378.522156,386.488251 386.101074,395.351166 396.757507,396.688843 
	C412.678131,398.687286 410.351562,402.550781 410.367737,413.877594 
	C410.440918,465.038788 410.397034,516.200134 410.410522,567.361450 
	C410.411102,569.523987 410.442413,571.699036 410.664764,573.846985 
	C411.663879,583.500122 417.613800,589.141968 426.938904,589.377686 
	C436.881897,589.629028 444.217224,583.691589 445.465454,574.192444 
	C445.810822,571.564209 445.732788,568.870789 445.727478,566.207458 
	C445.637360,521.045898 445.492493,475.884399 445.506439,430.722900 
	C445.507324,427.845428 446.075348,424.606628 447.473785,422.161804 
	C451.067261,415.879578 460.584045,416.162292 463.929230,422.597992 
	C465.174164,424.993103 465.753571,428.000885 465.762268,430.732086 
	C465.909912,477.060547 466.042938,523.389771 465.904419,569.718018 
	C465.841675,590.694092 449.691406,608.205750 430.251770,609.101746 
	C408.646332,610.097656 391.139435,593.459717 390.749542,570.946777 
	C390.345642,547.621887 390.475861,524.287598 390.391327,500.957306 
	C390.292908,473.793915 390.164337,446.630432 390.192413,419.467133 
	C390.195923,416.085602 389.364990,414.337402 385.965607,412.872284 
	C364.921204,403.802368 351.880585,379.988312 354.464142,356.038025 
	C354.677887,354.056427 354.960114,352.082214 355.312347,349.300629 
	C368.772675,359.286255 384.227142,360.049927 399.696625,360.445343 
	C412.520355,360.773132 425.357300,360.564697 438.182648,360.850891 
	C446.169189,361.029114 454.250946,361.016602 462.104736,362.259827 
	C481.272919,365.294098 496.702820,374.642975 507.334167,391.242889 
	C508.050476,392.361389 508.830536,393.439667 509.603882,394.520203 
	C509.673553,394.617584 509.912384,394.593964 509.170898,394.443359 
	C515.441101,387.721588 520.800049,380.671692 527.431213,375.149384 
	C539.860229,364.798615 555.004883,361.584747 570.853394,361.389191 
	C587.849487,361.179504 604.848633,361.203033 621.844177,360.964142 
	C628.167969,360.875275 634.501038,360.509888 640.801880,359.953552 
	C650.054688,359.136627 658.721924,356.381775 668.113708,350.056610 
	C667.728149,357.902252 667.989685,364.609436 666.974731,371.117523 
	C662.968445,396.806488 645.072632,414.410187 620.316040,417.579041 
	C613.014832,418.513611 608.256653,414.959320 607.772095,408.208832 
	C607.384705,402.811798 609.634644,399.656464 614.960327,398.523956 
	C618.205383,397.833862 621.569824,397.676605 624.789490,396.901245 
	C634.266113,394.619110 640.764038,387.868530 642.357971,379.616425 
	C617.126709,380.017365 591.720032,380.211121 566.327759,380.921387 
	C555.183228,381.233154 545.230774,385.614471 536.849304,392.970398 
	C525.574585,402.865540 518.670837,414.784180 519.571167,430.516327 
	C520.122498,440.148926 519.705017,449.837006 519.722656,460.000183 
z"/>
<path fill="#4383B7" opacity="1.000000" stroke="none" 
	d="
M225.565765,565.010498 
	C225.422058,564.242065 225.278351,563.473694 225.436829,561.987915 
	C225.520813,547.951965 225.302612,534.633301 225.084412,521.314636 
	C226.956482,487.588135 234.357086,455.160522 247.682877,424.082001 
	C264.793213,384.177094 288.796478,349.144409 321.434845,320.358978 
	C351.440887,293.895142 386.329102,275.787811 423.650482,262.057831 
	C446.613525,253.610062 470.331818,248.671295 494.729492,246.918488 
	C496.169037,246.815079 497.576599,246.266663 499.861145,245.949768 
	C504.482819,245.695328 508.242401,245.416443 512.312866,245.404510 
	C514.417175,245.779861 516.214294,245.847549 518.003479,246.005219 
	C521.674438,246.328690 525.341187,246.700378 528.915161,247.439270 
	C526.650513,248.214111 524.424866,249.126724 522.319397,248.903931 
	C509.252502,247.521332 496.254456,246.814316 483.439941,250.686523 
	C482.981720,250.824966 482.460907,250.748947 481.970703,250.789993 
	C477.041992,251.202499 472.113586,251.618591 467.490723,252.007935 
	C469.638428,253.204727 471.562531,254.367310 473.575806,255.346588 
	C474.223389,255.661575 475.133575,255.652023 475.877136,255.522995 
	C496.572205,251.930878 517.486511,251.408524 538.410217,250.988937 
	C539.767517,250.961731 541.120728,250.728699 543.184082,250.519623 
	C540.915894,249.050186 539.436218,248.091583 538.367493,247.084518 
	C539.879639,246.970490 540.980774,246.904892 542.501221,246.868256 
	C546.656799,247.243851 550.393005,247.590500 554.129272,247.937164 
	C563.644348,250.083054 573.233093,251.949585 582.659241,254.432877 
	C602.402100,259.634033 621.797424,265.886536 640.143188,275.029846 
	C640.921021,275.417542 641.802063,275.598175 642.899658,275.386627 
	C635.540527,267.759552 626.411011,262.774841 617.040222,257.159973 
	C616.384583,256.514587 616.048767,256.387146 615.712891,256.259735 
	C615.712891,256.259735 615.850952,256.266815 615.734009,255.988922 
	C614.998779,255.569168 614.380432,255.427292 613.762146,255.285431 
	C613.762146,255.285431 613.956726,255.188568 613.814514,254.889450 
	C612.380432,254.133301 611.088623,253.676285 609.796753,253.219269 
	C609.796753,253.219269 609.919434,253.174286 609.806824,252.871185 
	C606.909363,250.937012 604.073181,249.385986 601.359070,247.644669 
	C599.747925,246.610992 598.329163,245.277466 596.823914,244.078751 
	C598.215027,242.905289 599.070496,242.578339 599.653748,242.845581 
	C605.157166,245.367279 610.598877,248.023254 616.088745,250.575195 
	C622.097473,253.368317 628.138489,256.092255 634.165405,258.846375 
	C634.165405,258.846375 634.070679,258.899750 634.180054,259.116394 
	C634.630737,259.443756 634.972107,259.554474 635.313416,259.665192 
	C635.313416,259.665192 635.195190,259.603851 635.266235,259.971161 
	C636.984863,261.130585 638.632507,261.922668 640.280090,262.714783 
	C640.280090,262.714783 640.181580,262.805908 640.235840,263.106384 
	C645.631042,266.821594 650.971985,270.236389 656.312988,273.651154 
	C656.312988,273.651154 656.246338,273.775787 656.301819,274.030518 
	C656.941467,274.496765 657.525696,274.708252 658.109863,274.919739 
	C658.109863,274.919708 658.013977,274.966309 658.066406,275.276917 
	C658.847473,275.952423 659.576111,276.317322 660.304749,276.682251 
	C660.304749,276.682220 660.276611,276.840698 660.297729,277.053650 
	C660.657959,277.391724 660.997070,277.516846 661.336243,277.641968 
	C661.336243,277.641998 661.212708,277.568604 661.275940,277.946899 
	C662.292542,278.820831 663.245972,279.316406 664.199341,279.812012 
	C664.199341,279.812012 664.109375,279.892853 664.199524,280.107971 
	C664.622559,280.472931 664.955383,280.622772 665.288269,280.772644 
	C665.288269,280.772644 665.171692,280.805084 665.246460,281.039337 
	C665.662842,281.407135 666.004578,281.540680 666.346252,281.674255 
	C666.346252,281.674255 666.071960,281.809845 666.207764,282.017731 
	C666.686096,282.319733 667.028564,282.413818 667.371094,282.507935 
	C667.371094,282.507935 667.428040,282.565155 667.399719,282.919495 
	C669.034912,284.366486 670.698425,285.459137 672.361938,286.551788 
	C672.361938,286.551788 672.307312,286.559357 672.319519,286.942627 
	C675.288025,290.621124 678.411316,293.786346 681.124512,297.270874 
	C682.334473,298.824829 683.093872,300.988800 683.262268,302.944427 
	C683.316284,303.571960 680.820618,304.419098 679.491394,305.165802 
	C666.869446,298.112488 654.562439,290.408264 641.569214,284.122406 
	C594.013916,261.116241 544.000305,250.118530 491.008942,255.153000 
	C482.570129,255.954712 474.201660,257.496429 465.493713,258.339478 
	C466.855286,257.227173 468.523804,256.471436 470.159424,255.730637 
	C467.726379,254.812317 465.495819,253.229050 463.390442,253.380997 
	C461.217102,253.537842 459.165558,255.382233 456.169617,256.956604 
	C459.349396,257.872559 461.153412,258.392181 462.957428,258.911835 
	C444.646301,264.908173 425.797577,269.640717 408.132294,277.155273 
	C367.209076,294.563416 334.551971,322.772034 307.945740,358.199738 
	C306.743713,359.800323 304.832123,360.868011 302.477417,362.152710 
	C297.768494,363.783325 293.833252,365.445129 289.898010,367.106964 
	C284.926697,373.912811 279.481750,380.425568 275.059540,387.571228 
	C242.088135,440.848694 228.601074,499.036102 232.641800,561.299316 
	C233.510544,574.686035 236.578995,587.929993 238.422348,601.428711 
	C234.526581,593.393188 230.842606,585.168762 227.413040,576.657471 
	C226.966873,572.583984 226.266312,568.797241 225.565765,565.010498 
z"/>
<path fill="#060606" opacity="1.000000" stroke="none" 
	d="
M551.826477,422.599243 
	C557.209839,422.409576 562.430237,421.656616 567.321106,422.604309 
	C607.547424,430.398804 636.587952,460.557251 644.208374,501.997803 
	C652.375122,546.409363 630.261292,590.208374 590.541565,608.352173 
	C580.097107,613.123108 569.094116,615.433838 557.683350,615.958252 
	C550.841614,616.272705 547.264160,613.524353 546.803467,607.787231 
	C546.246033,600.845764 549.231140,597.128845 556.328064,596.595276 
	C583.083618,594.583374 603.612793,582.399170 616.516846,558.770630 
	C635.941589,523.202209 625.431152,476.498322 593.369690,454.120453 
	C582.626831,446.622253 570.519470,442.656250 557.555908,441.328705 
	C553.553772,440.918854 549.573242,440.379150 548.293579,436.018372 
	C546.882263,431.208862 547.120239,426.408142 551.826477,422.599243 
z"/>
<path fill="#69A57B" opacity="1.000000" stroke="none" 
	d="
M715.543152,676.347412 
	C683.268799,716.794922 642.854675,745.810425 593.930847,762.831848 
	C564.051575,773.227417 533.274597,778.253296 501.658569,776.910400 
	C440.636963,774.318604 386.089172,754.490723 339.346741,714.604919 
	C315.693237,694.421143 295.798798,671.046997 281.253998,643.465881 
	C261.962830,606.884338 250.556656,568.037903 248.955170,526.522217 
	C248.234756,507.846375 248.805664,489.245392 252.473785,470.387634 
	C254.549423,470.089081 256.092133,470.181671 257.133484,470.244171 
	C257.466858,473.564331 257.740021,476.284943 258.013184,479.005524 
	C257.612091,496.460114 255.871857,514.003845 257.027588,531.354736 
	C264.444977,642.711975 336.839783,732.858215 442.682678,760.761292 
	C506.692200,777.635986 568.572510,771.061096 627.396484,740.391479 
	C659.355530,723.728760 686.703064,701.064819 710.310974,673.069763 
	C712.464050,674.049133 714.003601,675.198303 715.543152,676.347412 
z"/>
<path fill="#DC6C7D" opacity="1.000000" stroke="none" 
	d="
M227.158646,576.944275 
	C230.842606,585.168762 234.526581,593.393188 238.478394,601.808594 
	C245.428741,621.407837 257.608948,637.365601 270.921692,652.507935 
	C277.050568,659.479065 283.892914,665.831299 290.524567,672.349365 
	C295.096161,676.842529 295.182678,676.754517 290.564880,682.217651 
	C276.619385,671.432678 265.282959,658.058228 253.279251,645.018066 
	C252.959427,644.999207 252.979477,645.061096 253.001648,644.704468 
	C252.335999,643.891968 251.648178,643.436096 250.988831,642.984131 
	C251.017288,642.987976 251.010529,643.045044 251.154938,642.717590 
	C250.847824,641.883362 250.396317,641.376526 249.819489,640.559875 
	C246.121460,634.339783 242.489853,628.464111 238.992889,622.509399 
	C235.600037,616.731934 232.345474,610.873230 229.030182,605.050232 
	C219.615143,582.241150 211.528015,559.044006 207.592224,534.552002 
	C201.783142,498.402740 202.728394,462.617615 212.904297,427.281372 
	C213.638657,424.731201 214.517303,422.184113 215.672104,419.802002 
	C217.689346,415.640839 218.557938,411.948944 216.215012,407.234070 
	C213.475632,401.721313 217.179245,395.192444 222.984344,393.280487 
	C228.888840,391.335785 235.982681,394.648163 237.745941,400.173157 
	C239.713593,406.338623 236.291138,413.607513 229.965652,414.649109 
	C225.390808,415.402405 224.140625,417.865540 222.835831,421.543610 
	C212.632309,450.306091 210.536957,479.939880 212.562729,510.136566 
	C214.009842,531.707520 218.496292,552.583374 225.799316,573.535889 
	C226.467606,575.041382 226.813126,575.992859 227.158646,576.944275 
z"/>
<path fill="#EFCA54" opacity="1.000000" stroke="none" 
	d="
M715.844604,676.232666 
	C714.003601,675.198303 712.464050,674.049133 710.578064,672.842712 
	C714.530579,666.316040 718.911682,659.899475 723.112244,653.366821 
	C733.769714,636.792480 742.262939,619.166382 748.888123,600.599609 
	C760.594849,567.791931 764.532166,533.844482 761.840759,499.390320 
	C759.219299,465.830902 751.071106,433.467407 734.739990,403.608398 
	C730.361084,395.602264 725.985168,387.593994 721.525391,379.632935 
	C719.310364,375.678894 719.445312,374.935059 724.740540,370.842194 
	C727.838257,375.451019 731.181030,379.858185 733.931396,384.608368 
	C751.800354,415.469788 763.606384,448.571350 768.489807,483.862762 
	C771.921875,508.665985 771.551270,533.587769 767.550293,558.444763 
	C763.720947,582.235840 757.162659,605.133240 746.904785,626.929993 
	C739.033997,643.654419 730.103821,659.767334 718.293945,674.115112 
	C717.677246,674.864441 716.866516,675.453979 715.844604,676.232666 
z"/>
<path fill="#E2A15B" opacity="1.000000" stroke="none" 
	d="
M494.138367,244.858368 
	C469.521576,245.769150 444.961517,247.118851 420.671143,251.713226 
	C386.811035,258.117645 355.822388,271.249329 327.513000,290.790894 
	C301.623932,308.661743 280.128876,330.906860 262.332458,356.776733 
	C259.412933,361.020752 256.528625,365.321014 254.060577,369.831909 
	C252.515900,372.655151 251.039490,373.345947 248.178528,371.814758 
	C244.825806,370.020386 246.477463,367.867096 247.706223,366.048523 
	C254.958038,355.315765 261.801910,344.249054 269.779755,334.076355 
	C291.869659,305.909180 319.304169,283.975128 350.940216,267.401794 
	C378.623383,252.899292 408.113800,243.472122 439.167419,240.235352 
	C460.790527,237.981537 482.628357,237.787537 504.921356,237.098602 
	C506.388184,237.799377 507.303925,238.074936 508.111664,238.317978 
	C506.323029,243.247528 502.493561,244.290268 497.871429,244.080185 
	C496.641418,244.024277 495.383484,244.582245 494.138367,244.858368 
z"/>
<path fill="#EEC75A" opacity="1.000000" stroke="none" 
	d="
M441.916077,799.273193 
	C440.968842,799.092834 440.021637,798.912476 438.537811,798.517639 
	C437.678162,798.183655 437.355133,798.064148 437.032074,797.944641 
	C435.253815,797.328125 433.475555,796.711548 431.115692,795.793091 
	C428.000000,794.723511 425.465912,793.955872 422.931824,793.188293 
	C422.931824,793.188293 422.496338,793.044128 422.157715,792.806641 
	C421.580231,792.310547 421.295532,792.241882 420.965027,792.363037 
	C420.526031,792.233398 420.087067,792.103699 419.103943,791.869019 
	C418.559784,791.764038 418.132233,791.758667 418.132233,791.758667 
	C417.385590,791.439514 416.638947,791.120361 415.374786,790.523560 
	C413.886200,789.890320 412.915161,789.534607 411.944092,789.178955 
	C409.949738,788.419495 407.955383,787.660095 405.396057,786.565063 
	C403.569672,785.794067 402.308197,785.358704 401.046753,784.923340 
	C401.046753,784.923340 401.001587,785.000000 400.877563,784.682800 
	C399.801544,784.034363 398.849579,783.703186 397.897583,783.372009 
	C397.481628,783.254028 397.065643,783.136047 396.158630,782.743347 
	C395.115601,782.311829 394.563660,782.155029 394.011688,781.998291 
	C393.029572,781.574585 392.047424,781.150879 390.587860,780.404236 
	C389.380859,779.809692 388.651306,779.538208 387.921753,779.266663 
	C387.921753,779.266663 387.459045,779.093140 387.124023,778.845093 
	C386.566589,778.336243 386.296478,778.270020 385.978699,778.398315 
	C385.207886,777.958740 384.437103,777.519226 383.146606,776.762573 
	C381.407349,775.992920 380.187744,775.540283 378.968140,775.087708 
	C378.619537,774.973999 378.270935,774.860229 377.491760,774.420288 
	C375.711029,773.390930 374.360962,772.687866 373.010864,771.984802 
	C372.509796,771.713501 372.008728,771.442200 371.075989,770.848511 
	C370.097687,770.358582 369.550995,770.190979 369.004333,770.023438 
	C367.262451,769.030273 365.520599,768.037109 363.279755,766.697754 
	C361.852844,765.901855 360.924896,765.452087 359.996948,765.002319 
	C359.526703,764.712341 359.056427,764.422424 358.158081,763.753174 
	C356.155029,762.584412 354.580109,761.794922 353.005188,761.005432 
	C353.005188,761.005432 353.001221,760.997559 352.898865,760.727295 
	C352.172363,759.736755 351.548279,759.016541 350.807678,757.993774 
	C350.109680,757.476318 349.528168,757.261292 348.977173,757.044189 
	C349.007690,757.042236 348.951782,757.070435 348.925476,756.750488 
	C347.599884,755.956482 346.300568,755.482361 344.738403,755.054382 
	C344.308136,755.160828 344.140778,755.221191 343.973389,755.281616 
	C343.973389,755.281616 343.541412,755.080811 343.302002,754.735474 
	C343.045349,754.203125 343.028076,754.015991 342.937897,753.505676 
	C336.735840,748.385498 330.606628,743.588501 324.477417,738.791565 
	C324.928589,737.960388 325.379761,737.129211 325.830902,736.298035 
	C328.142914,737.041199 330.451447,737.795410 332.768188,738.523560 
	C334.233917,738.984253 335.711884,739.406067 337.184387,739.845215 
	C337.184387,739.845215 337.092712,739.880310 337.140411,740.034180 
	C337.464661,740.088440 337.741211,739.988831 338.017792,739.889282 
	C347.121460,744.283875 356.068787,749.045715 365.359497,753.000977 
	C388.862305,763.006531 413.713257,768.212891 438.710571,772.770508 
	C444.387604,773.805603 444.404785,773.711304 443.056793,781.400818 
	C433.723236,779.896423 424.343597,778.384583 414.292572,776.607544 
	C407.801819,774.837585 401.982452,773.332825 396.163116,771.828064 
	C396.012970,772.288696 395.862793,772.749268 395.712646,773.209900 
	C400.863190,775.000122 406.013763,776.790405 411.164307,778.580627 
	C411.791962,778.776855 412.419647,778.973083 413.512878,779.482666 
	C414.694550,780.028015 415.410675,780.259949 416.126801,780.491943 
	C416.777039,780.712158 417.427277,780.932434 418.648010,781.434998 
	C420.484436,782.088135 421.750366,782.458984 423.016327,782.829834 
	C423.407288,782.931335 423.798279,783.032837 424.707642,783.430054 
	C427.189850,784.320801 429.153717,784.915955 431.117554,785.511047 
	C447.907379,789.391846 464.625977,793.628601 481.515747,797.010193 
	C490.592957,798.827515 499.964142,799.176758 509.607574,800.699829 
	C510.113495,803.947327 508.718658,804.894409 506.074646,805.065613 
	C503.674683,805.220886 501.314453,805.990601 498.936707,806.489441 
	C498.935181,807.117004 498.933624,807.744507 498.932098,808.372070 
	C500.648560,808.913818 502.350037,809.510193 504.084930,809.984558 
	C506.716827,810.704102 509.371857,811.338989 512.008545,812.234070 
	C512.000061,812.458374 511.972168,812.906494 511.550537,812.932373 
	C508.001495,812.577087 504.874115,812.195984 501.488770,811.546753 
	C492.585480,809.946777 483.906158,808.801086 475.304260,807.231323 
	C466.537018,805.631287 457.845886,803.614136 449.121399,801.779602 
	C448.307312,801.492798 447.493225,801.205994 446.140442,800.643921 
	C444.373230,800.003540 443.144653,799.638367 441.916077,799.273193 
z"/>
<path fill="#E4A057" opacity="1.000000" stroke="none" 
	d="
M760.094604,682.328247 
	C759.692139,682.844543 759.289673,683.360901 758.362061,684.056519 
	C757.595581,684.553040 757.354126,684.870239 757.112671,685.187500 
	C757.112671,685.187500 757.199463,685.121765 756.846680,685.128540 
	C755.783936,686.193420 755.074036,687.251526 754.364136,688.309692 
	C754.364197,688.309692 754.231018,688.300842 753.926147,688.349854 
	C753.461426,688.787964 753.301514,689.177002 753.141602,689.566101 
	C753.141663,689.566101 753.221558,689.808899 752.761169,689.907959 
	C750.975952,691.026611 749.732300,692.181885 748.307861,693.035156 
	C745.934509,694.456848 743.445312,695.685303 741.009399,696.615662 
	C741.717590,693.858459 742.421265,691.480774 743.280029,689.002808 
	C743.639038,688.760071 743.797241,688.577820 744.197632,688.258118 
	C744.682800,688.114441 744.880188,688.068420 745.410400,687.957764 
	C746.166443,686.943665 746.589539,685.994263 747.005249,685.020996 
	C746.997986,684.997192 747.045898,685.011169 747.281006,684.994141 
	C747.782532,684.855713 748.048889,684.734436 748.315308,684.613098 
	C747.963074,684.406555 747.610840,684.199951 747.212769,683.775269 
	C747.166870,683.557129 747.122681,683.113647 747.061768,683.085388 
	C747.000916,683.057129 747.124390,683.098328 747.377563,683.003113 
	C748.096924,682.362000 748.562988,681.816101 749.345459,681.068604 
	C749.785950,680.235901 749.909973,679.604675 750.032471,679.000793 
	C750.030823,679.028076 749.977234,679.038391 750.338013,679.124146 
	C750.804199,678.794312 750.909546,678.378845 751.020874,677.983948 
	C751.026733,678.004578 750.991211,678.027527 750.991211,678.027527 
	C752.275574,677.244263 753.853027,676.718872 754.801758,675.640320 
	C784.785400,641.554077 805.415161,602.779541 812.844177,557.660156 
	C815.000061,544.566406 815.942139,531.263855 817.126465,518.028931 
	C817.299133,516.099731 816.136230,513.678345 814.860413,512.061462 
	C810.916870,507.063202 810.513977,499.878265 814.337463,495.475067 
	C818.325317,490.882538 825.161072,490.268494 830.652588,494.009521 
	C835.256287,497.145721 836.729248,503.483673 833.928223,508.664093 
	C833.232300,509.951202 832.327393,511.648834 831.139893,512.057434 
	C825.516357,513.992493 825.270203,518.572937 825.147522,523.267334 
	C824.431641,550.670898 818.453613,577.024536 809.084412,602.656311 
	C798.440308,631.775696 782.188721,657.541077 761.155640,681.003784 
	C760.432800,681.636963 760.263733,681.982605 760.094604,682.328247 
z"/>
<path fill="#4483B4" opacity="1.000000" stroke="none" 
	d="
M777.006531,601.042969 
	C780.153381,586.841492 783.834351,572.732727 786.318359,558.416199 
	C789.803955,538.327515 790.976746,517.996460 790.141479,497.589996 
	C790.088440,496.294769 789.690430,495.013611 789.194092,493.045288 
	C788.533447,491.885803 788.131653,491.406952 787.729858,490.928101 
	C787.729858,490.928131 787.666931,490.739014 787.799072,490.268677 
	C787.960693,489.528290 787.990112,489.258270 788.386963,489.000824 
	C795.160645,491.416138 790.694580,497.018036 792.930969,501.001221 
	C794.299561,497.454285 795.801941,493.783600 795.840881,490.097443 
	C795.894714,484.997711 794.846741,479.886353 794.263428,474.716522 
	C793.208740,475.019287 791.929871,475.386414 790.644470,475.755432 
	C790.039978,472.347443 789.502258,469.315765 788.964478,466.284058 
	C788.540405,466.378571 788.116272,466.473083 787.692200,466.567566 
	C787.127319,468.046906 786.562439,469.526245 785.719666,470.753113 
	C785.036316,468.256836 784.106140,465.960938 784.322876,463.778961 
	C784.998535,456.978119 785.844727,450.271118 784.055786,443.464752 
	C782.621887,438.009003 781.721313,432.413025 780.583984,426.879272 
	C780.584045,426.879272 780.598999,426.661041 780.751465,426.215302 
	C780.440735,424.887299 779.977600,424.005035 779.514526,423.122742 
	C769.163269,379.825684 750.608765,340.454956 722.633118,305.082397 
	C724.342285,303.587463 725.893860,302.230316 727.800354,300.562805 
	C729.478638,302.445648 730.975647,303.952728 732.278625,305.612244 
	C761.765198,343.166351 779.701294,385.952393 789.888306,432.309448 
	C796.762268,463.590271 799.354797,495.194763 797.724548,527.146545 
	C797.390259,533.698547 796.372620,540.215637 795.299805,546.527954 
	C794.929688,539.628723 794.929688,532.950378 794.929688,526.888428 
	C794.156860,525.565552 793.109863,524.592468 793.082214,523.591187 
	C792.922974,517.812378 793.004578,512.026917 793.004578,505.529877 
	C791.961121,518.151428 791.384949,530.031860 789.899048,541.797302 
	C788.205139,555.209778 785.613525,568.506592 783.581299,581.879456 
	C782.426575,589.477661 777.121948,596.791199 781.802002,604.871277 
	C781.896545,605.034546 781.265747,605.617859 780.713501,605.817383 
	C779.304565,604.100647 778.155518,602.571838 777.006531,601.042969 
M794.997559,514.085327 
	C794.997559,515.371765 794.997559,516.658264 794.997559,517.944702 
	C795.367981,517.943359 795.738342,517.941956 796.108765,517.940552 
	C796.108765,512.378540 796.108765,506.816467 796.108765,501.254395 
	C795.738342,501.253784 795.367981,501.253174 794.997559,501.252563 
	C794.997559,505.232697 794.997559,509.212860 794.997559,514.085327 
z"/>
<path fill="#69A57B" opacity="1.000000" stroke="none" 
	d="
M547.174438,208.922043 
	C598.084106,216.949646 645.079224,234.226990 688.235779,261.695953 
	C690.661682,263.240021 692.328247,263.922333 695.253174,262.197693 
	C700.738281,258.963470 708.247314,261.619141 711.179016,267.116791 
	C713.971313,272.353149 712.249512,279.004761 707.316040,282.039886 
	C701.959961,285.334930 693.507690,283.958649 691.406555,277.859528 
	C688.281372,268.787567 680.662964,265.627899 673.767456,261.530518 
	C628.860657,234.846436 580.133118,219.640045 528.346619,213.867233 
	C520.414795,212.983047 512.467041,212.242325 504.529388,211.409180 
	C504.236664,211.378464 503.972961,211.071503 503.696930,210.891464 
	C502.839722,204.372467 503.069458,203.837036 509.071472,204.453873 
	C521.645386,205.746155 534.184143,207.380814 547.174438,208.922043 
z"/>
<path fill="#67A87C" opacity="1.000000" stroke="none" 
	d="
M724.161255,715.739319 
	C683.085327,747.826111 637.743835,771.196167 586.729431,782.959412 
	C560.980713,788.896851 534.937378,791.960144 508.473938,790.961060 
	C502.475739,790.734619 502.424652,790.757874 503.639801,784.166260 
	C584.506714,784.338074 657.513550,762.433716 718.578613,705.995728 
	C720.646423,707.665894 722.008484,709.367676 723.335815,711.421997 
	C723.587769,713.096252 723.874512,714.417786 724.161255,715.739319 
z"/>
<path fill="#DD6B79" opacity="1.000000" stroke="none" 
	d="
M501.746735,811.814819 
	C504.874115,812.195984 508.001495,812.577087 512.020508,812.974243 
	C529.545288,813.353271 546.088684,812.813904 562.437622,809.184814 
	C572.909424,806.860291 583.485840,805.007568 594.413452,802.959045 
	C597.894592,802.322449 600.977661,801.670105 604.384888,801.009583 
	C605.463257,800.699036 606.217529,800.396729 607.278687,800.043701 
	C608.085754,799.659058 608.585938,799.325195 609.469604,798.994385 
	C610.875549,798.998291 611.897949,798.999084 612.920349,798.999878 
	C613.935242,801.399780 614.950195,803.799683 616.198364,806.751099 
	C613.892578,807.623840 612.128540,808.429260 610.286499,808.968628 
	C568.178772,821.299866 525.300903,825.268555 481.836090,819.131104 
	C462.778992,816.440125 443.984985,811.816101 425.131561,807.788635 
	C418.083374,806.282959 418.161255,805.918335 421.008972,798.533875 
	C431.366913,801.042480 441.780884,803.564636 452.907043,806.309814 
	C455.405975,806.844971 457.181488,807.265442 458.981201,807.452271 
	C473.233795,808.931580 487.490967,810.366394 501.746735,811.814819 
z"/>
<path fill="#4284BA" opacity="1.000000" stroke="none" 
	d="
M780.973389,606.005249 
	C781.265747,605.617859 781.896545,605.034546 781.802002,604.871277 
	C777.121948,596.791199 782.426575,589.477661 783.581299,581.879456 
	C785.613525,568.506592 788.205139,555.209778 789.899048,541.797302 
	C791.384949,530.031860 791.961121,518.151428 793.004578,505.529877 
	C793.004578,512.026917 792.922974,517.812378 793.082214,523.591187 
	C793.109863,524.592468 794.156860,525.565552 794.929688,526.888428 
	C794.929688,532.950378 794.929688,539.628723 794.990784,546.721680 
	C795.051880,547.136353 795.011780,547.578857 794.621582,547.851135 
	C793.842468,552.778625 793.453552,557.433838 793.064575,562.089050 
	C793.064575,562.089050 793.031555,562.018066 792.763916,562.253296 
	C792.361755,564.034546 792.227173,565.580627 792.092651,567.126648 
	C792.092651,567.126648 792.062805,567.044800 791.786621,567.229736 
	C790.006348,574.254944 788.410828,581.076965 787.041016,587.943970 
	C786.452759,590.892578 786.333252,593.934631 786.000793,596.934265 
	C790.852295,600.535339 793.171143,605.310669 793.041687,611.395508 
	C792.888611,618.591003 788.907349,623.447998 781.714294,624.037659 
	C778.356445,624.312866 777.165955,625.798279 775.750244,628.662354 
	C767.684265,644.980103 759.249512,661.115662 750.965637,677.670288 
	C750.991211,678.027527 751.026733,678.004578 750.734985,678.017212 
	C750.287903,678.366028 750.132568,678.702209 749.977173,679.038391 
	C749.977234,679.038391 750.030823,679.028076 749.771057,679.078064 
	C749.078613,679.448303 748.645935,679.768555 747.918335,680.268799 
	C747.457031,681.331970 747.290710,682.215149 747.124390,683.098328 
	C747.124390,683.098328 747.000916,683.057129 746.698425,683.091064 
	C745.285156,684.770447 744.174316,686.415894 743.057922,688.045837 
	C743.052307,688.030334 743.062134,688.050781 742.812866,688.132812 
	C742.407471,688.514954 742.251343,688.815125 742.063171,689.064392 
	C742.031128,689.013428 742.086975,689.112244 741.721924,689.104492 
	C740.691101,690.191345 740.025391,691.285889 739.192688,692.624451 
	C738.376221,693.601562 737.726746,694.334656 736.724487,695.067139 
	C734.532166,696.612122 732.767700,698.263489 730.814758,699.649231 
	C730.068604,700.178772 728.890991,700.100403 727.910034,700.299072 
	C727.960815,699.315491 727.838074,698.281799 728.104126,697.360352 
	C728.482544,696.049866 729.146729,694.821960 729.688721,693.558777 
	C745.931274,672.703003 759.230286,650.128784 769.315308,625.678406 
	C769.885010,624.297302 770.447144,622.913086 771.482544,621.078552 
	C773.295776,619.412292 774.639282,618.197754 776.335205,616.955322 
	C777.995117,616.065613 779.302673,615.203918 780.610229,614.342163 
	C780.066345,613.891418 779.522583,613.440735 778.978149,612.605347 
	C779.642761,610.148804 780.308044,608.077026 780.973389,606.005249 
z"/>
<path fill="#67A07D" opacity="1.000000" stroke="none" 
	d="
M780.576721,454.859924 
	C775.778809,441.401642 771.749146,427.607574 766.041016,414.547119 
	C747.859558,372.947601 721.482056,337.446899 685.358765,308.864014 
	C685.553650,305.838776 685.789001,303.443481 686.024292,301.048157 
	C701.847839,311.978271 715.509888,325.263977 727.885071,339.885834 
	C750.379333,366.463776 768.387939,395.697174 779.916626,429.526367 
	C779.680847,432.709808 778.990845,435.136871 779.109802,437.523621 
	C779.398376,443.312378 780.063416,449.082367 780.576721,454.859924 
z"/>
<path fill="#E0707D" opacity="1.000000" stroke="none" 
	d="
M613.115234,798.683655 
	C611.897949,798.999084 610.875549,798.998291 609.416687,798.645752 
	C609.601990,796.671326 610.223755,795.048584 610.866943,793.369873 
	C610.291443,793.072388 609.191589,792.503784 608.091736,791.935181 
	C625.435974,785.139038 643.129272,779.106384 660.044556,771.372131 
	C687.012512,759.041443 711.155945,742.134949 733.365051,722.491333 
	C734.237915,721.719360 735.127319,720.962769 736.048828,720.250427 
	C736.563171,719.852966 737.159485,719.561523 738.005127,719.048767 
	C739.389343,720.685303 740.744202,722.287170 742.711182,724.612793 
	C736.495056,729.996887 730.609131,735.533752 724.277710,740.503052 
	C696.427612,762.361694 665.924377,779.567444 632.712341,791.884521 
	C626.322388,794.254333 619.781494,796.217041 613.115234,798.683655 
z"/>
<path fill="#629F7D" opacity="1.000000" stroke="none" 
	d="
M258.192200,478.661438 
	C257.740021,476.284943 257.466858,473.564331 257.133484,470.244171 
	C256.092133,470.181671 254.549423,470.089081 252.597717,469.994995 
	C257.665161,435.253693 269.286438,402.741455 287.465240,372.600647 
	C288.396240,371.057007 289.160583,369.412872 289.950256,367.461243 
	C293.833252,365.445129 297.768494,363.783325 302.136780,362.196930 
	C291.929230,378.814636 282.250641,395.861389 274.989227,414.205139 
	C266.799103,434.894897 261.557251,456.336700 258.192200,478.661438 
z"/>
<path fill="#69A57B" opacity="1.000000" stroke="none" 
	d="
M512.998413,222.749390 
	C493.910553,221.800217 474.783752,219.636948 455.745972,220.248032 
	C437.221771,220.842636 418.788605,224.277481 400.316071,226.470490 
	C399.022217,226.624084 397.733551,226.821518 395.913147,227.071182 
	C395.561920,224.805954 395.247986,222.781235 394.854645,220.244232 
	C428.577393,212.557678 462.257263,210.749878 496.699127,214.226868 
	C498.685822,215.515762 500.254639,216.229614 501.790649,217.008179 
	C505.534668,218.905945 509.263489,220.833694 512.998413,222.749390 
z"/>
<path fill="#63A282" opacity="1.000000" stroke="none" 
	d="
M513.390503,222.864548 
	C509.263489,220.833694 505.534668,218.905945 501.790649,217.008179 
	C500.254639,216.229614 498.685822,215.515762 497.059387,214.408661 
	C517.319824,217.833282 537.858765,220.781448 557.915405,225.697540 
	C571.924683,229.131378 585.273743,235.258591 598.747803,240.515076 
	C595.553223,240.847351 592.528564,240.847351 588.717712,240.847351 
	C590.688904,243.101929 591.767273,244.335327 592.845642,245.568726 
	C571.782288,237.067215 550.277344,229.993652 527.957825,225.574829 
	C523.246155,224.642014 518.508362,223.841293 513.390503,222.864548 
z"/>
<path fill="#4B82B0" opacity="1.000000" stroke="none" 
	d="
M229.057129,605.441772 
	C232.345474,610.873230 235.600037,616.731934 238.992889,622.509399 
	C242.489853,628.464111 246.121460,634.339783 249.580658,640.698608 
	C249.981628,641.779785 250.496078,642.412415 251.010529,643.045044 
	C251.010529,643.045044 251.017288,642.987976 250.994019,643.360596 
	C251.640320,644.175842 252.309891,644.618469 252.979462,645.061096 
	C252.979477,645.061096 252.959427,644.999207 252.928131,645.007812 
	C253.255325,646.470093 253.294052,648.112549 254.023315,649.347229 
	C259.408813,658.465637 264.939240,667.498352 270.403595,676.570374 
	C271.160950,677.827698 271.805969,679.152649 272.352936,680.963989 
	C270.867218,682.599182 269.531555,683.716797 268.195923,684.834412 
	C264.413971,679.892578 260.168488,675.235046 256.932404,669.958374 
	C244.641205,649.916931 234.761307,628.773254 229.057129,605.441772 
z"/>
<path fill="#E2A15B" opacity="1.000000" stroke="none" 
	d="
M268.231476,685.267090 
	C269.531555,683.716797 270.867218,682.599182 272.333252,681.356567 
	C273.687714,682.004211 275.146667,682.558411 276.100037,683.583130 
	C286.895905,695.186462 297.611176,706.864807 308.368744,718.503906 
	C308.686493,718.847717 309.230438,718.982483 310.000549,719.498901 
	C310.332153,719.783020 310.519989,719.979309 310.519989,719.979309 
	C311.046875,720.372192 311.573792,720.765076 311.936951,721.662354 
	C311.128204,724.576904 310.483154,726.986877 309.838104,729.396912 
	C309.353973,729.173157 308.869873,728.949402 308.071289,728.491699 
	C307.756836,728.257812 307.769043,728.229187 307.769043,728.229187 
	C292.827454,715.700684 279.449036,701.720215 268.231476,685.267090 
z"/>
<path fill="#EEBB50" opacity="1.000000" stroke="none" 
	d="
M512.017090,812.009766 
	C509.371857,811.338989 506.716827,810.704102 504.084930,809.984558 
	C502.350037,809.510193 500.648560,808.913818 498.932098,808.372070 
	C498.933624,807.744507 498.935181,807.117004 498.936707,806.489441 
	C501.314453,805.990601 503.674683,805.220886 506.074646,805.065613 
	C508.718658,804.894409 510.113495,803.947327 510.019470,800.844788 
	C510.468658,800.424194 510.910797,800.370178 511.828247,800.761719 
	C513.885315,801.471497 515.465454,801.952087 517.049255,801.964417 
	C526.363220,802.036804 535.678101,802.000000 545.440308,802.000000 
	C548.040222,802.020630 550.242920,801.772278 552.325989,802.162537 
	C553.584961,802.398438 555.698059,803.785278 555.607300,804.375000 
	C555.391052,805.780640 554.368591,807.474121 553.160095,808.203125 
	C551.874878,808.978394 549.822327,809.341614 548.414673,808.899170 
	C543.443970,807.336426 538.720398,806.093872 534.702820,810.862122 
	C534.480347,811.126221 533.748230,810.969482 533.252563,810.993347 
	C526.174133,811.333618 519.095581,811.671387 512.017090,812.009766 
z"/>
<path fill="#F0AB56" opacity="1.000000" stroke="none" 
	d="
M512.008545,812.234070 
	C519.095581,811.671387 526.174133,811.333618 533.252563,810.993347 
	C533.748230,810.969482 534.480347,811.126221 534.702820,810.862122 
	C538.720398,806.093872 543.443970,807.336426 548.414673,808.899170 
	C549.822327,809.341614 551.874878,808.978394 553.160095,808.203125 
	C554.368591,807.474121 555.391052,805.780640 555.607300,804.375000 
	C555.698059,803.785278 553.584961,802.398438 552.325989,802.162537 
	C550.242920,801.772278 548.040222,802.020630 545.444275,801.774536 
	C545.000610,801.549133 545.004272,801.098267 545.004272,801.098267 
	C548.275940,800.982056 551.547546,800.865845 555.746216,800.856812 
	C563.728149,800.378235 570.774353,799.505432 577.840637,799.290771 
	C584.356628,799.092896 591.038940,796.272705 597.493042,799.859985 
	C596.235413,800.974976 595.125427,801.959167 594.015381,802.943359 
	C583.485840,805.007568 572.909424,806.860291 562.437622,809.184814 
	C546.088684,812.813904 529.545288,813.353271 512.442139,812.948364 
	C511.972168,812.906494 512.000061,812.458374 512.008545,812.234070 
z"/>
<path fill="#99837A" opacity="1.000000" stroke="none" 
	d="
M494.515381,244.912613 
	C495.383484,244.582245 496.641418,244.024277 497.871429,244.080185 
	C502.493561,244.290268 506.323029,243.247528 508.111664,238.317978 
	C507.303925,238.074936 506.388184,237.799377 505.277710,237.281525 
	C520.740845,238.014786 536.410828,238.834229 552.049866,240.051346 
	C557.466003,240.472855 554.465515,244.476288 554.211914,247.548264 
	C550.393005,247.590500 546.656799,247.243851 542.398560,246.526749 
	C540.117920,245.452637 538.186890,245.013626 536.630371,243.999725 
	C529.679016,239.471603 518.184265,239.924484 512.002014,245.137543 
	C508.242401,245.416443 504.482819,245.695328 500.272095,245.909485 
	C498.178101,245.552124 496.535278,245.259491 494.515381,244.912613 
z"/>
<path fill="#F0AB56" opacity="1.000000" stroke="none" 
	d="
M309.936462,729.697998 
	C310.483154,726.986877 311.128204,724.576904 312.089966,721.961487 
	C318.465454,726.052856 324.523499,730.350708 330.583496,734.645752 
	C332.727295,736.165222 334.875885,737.677917 337.103333,739.519531 
	C335.711884,739.406067 334.233917,738.984253 332.768188,738.523560 
	C330.451447,737.795410 328.142914,737.041199 325.830902,736.298035 
	C325.379761,737.129211 324.928589,737.960388 324.477417,738.791565 
	C330.606628,743.588501 336.735840,748.385498 342.684906,753.544373 
	C342.337433,753.939392 342.170074,753.972412 342.002716,754.005371 
	C331.346771,746.003235 320.690796,738.001160 309.936462,729.697998 
z"/>
<path fill="#E2A15B" opacity="1.000000" stroke="none" 
	d="
M594.413452,802.959106 
	C595.125427,801.959167 596.235413,800.974976 597.493042,799.859985 
	C591.038940,796.272705 584.356628,799.092896 577.840637,799.290771 
	C570.774353,799.505432 563.728149,800.378235 556.179688,800.934448 
	C563.170715,799.848999 570.693481,799.008179 578.130127,797.684021 
	C587.864990,795.950623 597.531921,793.835510 607.659912,791.909912 
	C609.191589,792.503784 610.291443,793.072388 610.866943,793.369873 
	C610.223755,795.048584 609.601990,796.671326 609.033142,798.642700 
	C608.585938,799.325195 608.085754,799.659058 607.099304,799.774658 
	C605.762268,800.043579 604.911560,800.530701 604.060791,801.017822 
	C600.977661,801.670105 597.894592,802.322449 594.413452,802.959106 
z"/>
<path fill="#4B82B0" opacity="1.000000" stroke="none" 
	d="
M780.584167,455.225159 
	C780.063416,449.082367 779.398376,443.312378 779.109802,437.523621 
	C778.990845,435.136871 779.680847,432.709808 780.044434,429.829895 
	C780.232727,428.717438 780.379517,428.076172 780.555115,427.157104 
	C781.721313,432.413025 782.621887,438.009003 784.055786,443.464752 
	C785.844727,450.271118 784.998535,456.978119 784.322876,463.778961 
	C784.106140,465.960938 785.036316,468.256836 785.720337,471.205933 
	C786.454529,475.793182 786.908508,479.675262 787.366455,483.556915 
	C787.580078,485.367859 787.801575,487.177856 788.019531,488.988281 
	C787.990112,489.258270 787.960693,489.528290 787.874268,490.203217 
	C786.560608,484.809143 785.258728,479.019501 784.059875,473.208618 
	C782.850525,467.346863 781.743469,461.464020 780.584167,455.225159 
z"/>
<path fill="#4B82B0" opacity="1.000000" stroke="none" 
	d="
M593.088257,245.778992 
	C591.767273,244.335327 590.688904,243.101929 588.717712,240.847351 
	C592.528564,240.847351 595.553223,240.847351 598.992676,240.773804 
	C610.867859,246.561981 622.328247,252.423721 633.976990,258.565918 
	C628.138489,256.092255 622.097473,253.368317 616.088745,250.575195 
	C610.598877,248.023254 605.157166,245.367279 599.653748,242.845581 
	C599.070496,242.578339 598.215027,242.905289 596.823914,244.078751 
	C598.329163,245.277466 599.747925,246.610992 601.359070,247.644669 
	C604.073181,249.385986 606.909363,250.937012 609.771606,252.926208 
	C604.342957,250.852661 598.836914,248.420975 593.088257,245.778992 
z"/>
<path fill="#E2A15B" opacity="1.000000" stroke="none" 
	d="
M737.077209,695.067688 
	C737.726746,694.334656 738.376221,693.601562 739.480713,692.508179 
	C740.652893,691.136047 741.369934,690.124146 742.086975,689.112244 
	C742.086975,689.112244 742.031128,689.013428 742.296387,689.068665 
	C742.561707,689.123901 743.016602,689.015564 743.043457,689.037720 
	C743.070374,689.059875 743.125000,689.103027 743.125000,689.103027 
	C742.421265,691.480774 741.717590,693.858459 741.006958,696.618103 
	C741.000000,697.000000 740.995117,697.004883 740.614746,697.009521 
	C739.215881,697.787048 738.197327,698.559998 737.178772,699.332886 
	C738.445068,699.881104 739.711304,700.429382 741.089844,701.111206 
	C741.202087,701.244751 741.426453,701.512024 741.426453,701.512024 
	C735.865662,706.191101 730.304871,710.870178 724.452637,715.644287 
	C723.874512,714.417786 723.587769,713.096252 723.565979,711.208740 
	C728.246338,705.451111 732.661804,700.259399 737.077209,695.067688 
M734.463074,703.286316 
	C735.038574,703.398010 735.614136,703.509705 736.189697,703.621399 
	C736.194885,703.212402 736.200012,702.803406 736.205139,702.394409 
	C735.626892,702.491882 735.048706,702.589355 734.463074,703.286316 
z"/>
<path fill="#FCE8D1" opacity="1.000000" stroke="none" 
	d="
M501.488770,811.546692 
	C487.490967,810.366394 473.233795,808.931580 458.981201,807.452271 
	C457.181488,807.265442 455.405975,806.844971 453.317230,806.297852 
	C451.779358,804.863708 450.543488,803.664490 449.214539,802.122437 
	C457.845886,803.614136 466.537018,805.631287 475.304260,807.231323 
	C483.906158,808.801086 492.585480,809.946777 501.488770,811.546692 
z"/>
<path fill="#718D90" opacity="1.000000" stroke="none" 
	d="
M736.724487,695.067139 
	C732.661804,700.259399 728.246338,705.451111 723.600708,710.856079 
	C722.008484,709.367676 720.646423,707.665894 718.874512,705.870728 
	C722.020020,701.824280 725.575378,697.871216 729.409790,693.738464 
	C729.146729,694.821960 728.482544,696.049866 728.104126,697.360352 
	C727.838074,698.281799 727.960815,699.315491 727.910034,700.299072 
	C728.890991,700.100403 730.068604,700.178772 730.814758,699.649231 
	C732.767700,698.263489 734.532166,696.612122 736.724487,695.067139 
z"/>
<path fill="#718D90" opacity="1.000000" stroke="none" 
	d="
M775.982788,616.983276 
	C774.639282,618.197754 773.295776,619.412292 771.689880,620.760864 
	C773.129761,614.450134 774.832092,608.005371 776.770508,601.301819 
	C778.155518,602.571838 779.304565,604.100647 780.713501,605.817383 
	C780.308044,608.077026 779.642761,610.148804 778.684021,612.749756 
	C777.587952,614.513672 776.785339,615.748413 775.982788,616.983276 
z"/>
<path fill="#4B82B0" opacity="1.000000" stroke="none" 
	d="
M224.955231,521.667725 
	C225.302612,534.633301 225.520813,547.951965 225.500031,561.597534 
	C225.116043,548.623230 224.971054,535.322021 224.955231,521.667725 
z"/>
<path fill="#4B82B0" opacity="1.000000" stroke="none" 
	d="
M685.845886,300.751282 
	C685.789001,303.443481 685.553650,305.838776 685.160522,308.595917 
	C683.298279,307.879883 681.593872,306.802032 679.690430,305.444977 
	C680.820618,304.419098 683.316284,303.571960 683.262268,302.944427 
	C683.093872,300.988800 682.334473,298.824829 681.124512,297.270874 
	C678.411316,293.786346 675.288025,290.621124 672.333618,286.966309 
	C676.779480,291.222626 681.223450,295.838501 685.845886,300.751282 
z"/>
<path fill="#4483B4" opacity="1.000000" stroke="none" 
	d="
M786.201050,596.633667 
	C786.333252,593.934631 786.452759,590.892578 787.041016,587.943970 
	C788.410828,581.076965 790.006348,574.254944 791.830078,567.226318 
	C790.233582,576.802917 788.317444,586.567993 786.201050,596.633667 
z"/>
<path fill="#FCE8D1" opacity="1.000000" stroke="none" 
	d="
M411.221985,778.273926 
	C406.013763,776.790405 400.863190,775.000122 395.712646,773.209900 
	C395.862793,772.749268 396.012970,772.288696 396.163116,771.828064 
	C401.982452,773.332825 407.801819,774.837585 413.885254,776.601257 
	C413.192810,777.229187 412.236206,777.598206 411.221985,778.273926 
z"/>
<path fill="#2E82C4" opacity="1.000000" stroke="none" 
	d="
M463.307617,258.941406 
	C461.153412,258.392181 459.349396,257.872559 456.169617,256.956604 
	C459.165558,255.382233 461.217102,253.537842 463.390442,253.380997 
	C465.495819,253.229050 467.726379,254.812317 470.159424,255.730637 
	C468.523804,256.471436 466.855286,257.227173 465.096588,258.303345 
	C464.556915,258.739532 464.107361,258.855255 463.307617,258.941406 
z"/>
<path fill="#EEC75A" opacity="1.000000" stroke="none" 
	d="
M544.539856,801.027283 
	C545.004272,801.098267 545.000610,801.549133 544.996643,801.774536 
	C535.678101,802.000000 526.363220,802.036804 517.049255,801.964417 
	C515.465454,801.952087 513.885315,801.471497 512.147156,800.877075 
	C522.685669,800.683350 533.380554,800.819824 544.539856,801.027283 
z"/>
<path fill="#E2A15B" opacity="1.000000" stroke="none" 
	d="
M741.002441,696.997559 
	C743.445312,695.685303 745.934509,694.456848 748.307861,693.035156 
	C749.732300,692.181885 750.975952,691.026611 752.674438,690.001831 
	C749.379517,693.748840 745.710815,697.501038 741.734314,701.382568 
	C741.426453,701.512024 741.202087,701.244751 741.097961,700.714478 
	C740.994263,699.124451 740.994690,698.064697 740.995117,697.004883 
	C740.995117,697.004883 741.000000,697.000000 741.002441,696.997559 
z"/>
<path fill="#4B82B0" opacity="1.000000" stroke="none" 
	d="
M656.166504,273.360016 
	C650.971985,270.236389 645.631042,266.821594 640.244019,263.039795 
	C645.471985,266.138123 650.746033,269.603485 656.166504,273.360016 
z"/>
<path fill="#4483B4" opacity="1.000000" stroke="none" 
	d="
M793.354065,561.899780 
	C793.453552,557.433838 793.842468,552.778625 794.557495,548.063843 
	C794.470215,552.572998 794.056885,557.141724 793.354065,561.899780 
z"/>
<path fill="#4B82B0" opacity="1.000000" stroke="none" 
	d="
M227.413040,576.657471 
	C226.813126,575.992859 226.467606,575.041382 226.100601,573.800110 
	C225.853134,570.943237 225.627151,568.376221 225.483459,565.409851 
	C226.266312,568.797241 226.966873,572.583984 227.413040,576.657471 
z"/>
<path fill="#FCE8D1" opacity="1.000000" stroke="none" 
	d="
M350.924164,758.296265 
	C351.548279,759.016541 352.172363,759.736755 352.894562,760.726196 
	C350.998291,759.910706 349.003937,758.826111 347.333527,757.351807 
	C348.088928,756.998169 348.520355,757.034302 348.951782,757.070435 
	C348.951782,757.070435 349.007690,757.042236 349.139618,757.301514 
	C349.822418,757.805908 350.373291,758.051086 350.924164,758.296265 
z"/>
<path fill="#FCE8D1" opacity="1.000000" stroke="none" 
	d="
M423.020782,793.515991 
	C425.465912,793.955872 428.000000,794.723511 430.762146,795.759521 
	C428.363373,795.299805 425.736572,794.571777 423.020782,793.515991 
z"/>
<path fill="#4B82B0" opacity="1.000000" stroke="none" 
	d="
M672.232117,286.259827 
	C670.698425,285.459137 669.034912,284.366486 667.437927,282.906372 
	C669.037048,283.681915 670.569702,284.824860 672.232117,286.259827 
z"/>
<path fill="#FCE8D1" opacity="1.000000" stroke="none" 
	d="
M430.987000,785.209045 
	C429.153717,784.915955 427.189850,784.320801 425.009949,783.455566 
	C426.814728,783.759216 428.835571,784.333130 430.987000,785.209045 
z"/>
<path fill="#FCE8D1" opacity="1.000000" stroke="none" 
	d="
M373.049377,772.355896 
	C374.360962,772.687866 375.711029,773.390930 377.218964,774.382202 
	C375.947144,774.022644 374.517517,773.374817 373.049377,772.355896 
z"/>
<path fill="#FCE8D1" opacity="1.000000" stroke="none" 
	d="
M379.013885,775.421265 
	C380.187744,775.540283 381.407349,775.992920 382.814514,776.716064 
	C381.687958,776.575989 380.373779,776.165466 379.013885,775.421265 
z"/>
<path fill="#4B82B0" opacity="1.000000" stroke="none" 
	d="
M640.132080,262.420044 
	C638.632507,261.922668 636.984863,261.130585 635.332703,259.967010 
	C636.880066,260.438812 638.432068,261.282074 640.132080,262.420044 
z"/>
<path fill="#FCE8D1" opacity="1.000000" stroke="none" 
	d="
M353.057800,761.354675 
	C354.580109,761.794922 356.155029,762.584412 357.896912,763.662720 
	C356.412720,763.202209 354.761536,762.453064 353.057800,761.354675 
z"/>
<path fill="#4483B4" opacity="1.000000" stroke="none" 
	d="
M792.374023,566.983032 
	C792.227173,565.580627 792.361755,564.034546 792.802979,562.254578 
	C792.958313,563.626892 792.806885,565.233215 792.374023,566.983032 
z"/>
<path fill="#FCE8D1" opacity="1.000000" stroke="none" 
	d="
M441.997467,799.572876 
	C443.144653,799.638367 444.373230,800.003540 445.808716,800.619080 
	C444.703400,800.537109 443.391113,800.204834 441.997467,799.572876 
z"/>
<path fill="#E2A15B" opacity="1.000000" stroke="none" 
	d="
M754.670898,688.239014 
	C755.074036,687.251526 755.783936,686.193420 756.870300,685.177612 
	C756.490356,686.202698 755.734009,687.185608 754.670898,688.239014 
z"/>
<path fill="#F0AB56" opacity="1.000000" stroke="none" 
	d="
M348.925476,756.750488 
	C348.520355,757.034302 348.088928,756.998169 347.332703,756.973572 
	C346.566681,756.661743 346.125427,756.338379 345.383057,755.740845 
	C345.081879,755.466736 345.001282,755.008240 345.001282,755.008240 
	C346.300568,755.482361 347.599884,755.956482 348.925476,756.750488 
z"/>
<path fill="#FCE8D1" opacity="1.000000" stroke="none" 
	d="
M422.838074,782.533142 
	C421.750366,782.458984 420.484436,782.088135 418.991882,781.462402 
	C420.063477,781.550537 421.361664,781.893494 422.838074,782.533142 
z"/>
<path fill="#4B82B0" opacity="1.000000" stroke="none" 
	d="
M609.988647,253.489807 
	C611.088623,253.676285 612.380432,254.133301 613.734253,254.962723 
	C612.591003,254.810196 611.385803,254.285278 609.988647,253.489807 
z"/>
<path fill="#FCE8D1" opacity="1.000000" stroke="none" 
	d="
M401.191650,785.253784 
	C402.308197,785.358704 403.569672,785.794067 405.050354,786.491699 
	C403.958618,786.364075 402.647614,785.974121 401.191650,785.253784 
z"/>
<path fill="#FCE8D1" opacity="1.000000" stroke="none" 
	d="
M360.054779,765.351074 
	C360.924896,765.452087 361.852844,765.901855 362.944275,766.627441 
	C362.109375,766.502136 361.110992,766.101013 360.054779,765.351074 
z"/>
<path fill="#FCE8D1" opacity="1.000000" stroke="none" 
	d="
M412.032379,789.519653 
	C412.915161,789.534607 413.886200,789.890320 415.070648,790.488892 
	C414.229614,790.441284 413.175140,790.150818 412.032379,789.519653 
z"/>
<path fill="#FCE8D1" opacity="1.000000" stroke="none" 
	d="
M398.005981,783.676758 
	C398.849579,783.703186 399.801544,784.034363 400.906494,784.648926 
	C400.077759,784.615417 399.096069,784.298523 398.005981,783.676758 
z"/>
<path fill="#4B82B0" opacity="1.000000" stroke="none" 
	d="
M660.184875,276.408875 
	C659.576111,276.317322 658.847473,275.952423 658.097168,275.233398 
	C658.738708,275.298035 659.401855,275.716766 660.184875,276.408875 
z"/>
<path fill="#FCE8D1" opacity="1.000000" stroke="none" 
	d="
M394.033875,782.290283 
	C394.563660,782.155029 395.115601,782.311829 395.835266,782.711121 
	C395.354004,782.829834 394.705017,782.706055 394.033875,782.290283 
z"/>
<path fill="#4B82B0" opacity="1.000000" stroke="none" 
	d="
M664.059143,279.530640 
	C663.245972,279.316406 662.292542,278.820831 661.346008,277.962891 
	C662.208191,278.150085 663.063599,278.699677 664.059143,279.530640 
z"/>
<path fill="#FCE8D1" opacity="1.000000" stroke="none" 
	d="
M388.018738,779.583374 
	C388.651306,779.538208 389.380859,779.809692 390.269379,780.348755 
	C389.657440,780.377502 388.886566,780.138794 388.018738,779.583374 
z"/>
<path fill="#FCE8D1" opacity="1.000000" stroke="none" 
	d="
M416.009552,780.210083 
	C415.410675,780.259949 414.694550,780.028015 413.841705,779.516052 
	C414.434082,779.466797 415.163177,779.697510 416.009552,780.210083 
z"/>
<path fill="#4B82B0" opacity="1.000000" stroke="none" 
	d="
M779.600220,423.499023 
	C779.977600,424.005035 780.440735,424.887299 780.858521,426.193176 
	C780.437500,425.702911 780.061707,424.789093 779.600220,423.499023 
z"/>
<path fill="#FCE8D1" opacity="1.000000" stroke="none" 
	d="
M369.156311,770.276733 
	C369.550995,770.190979 370.097687,770.358582 370.801483,770.771790 
	C370.408508,770.854980 369.858398,770.692444 369.156311,770.276733 
z"/>
<path fill="#4B82B0" opacity="1.000000" stroke="none" 
	d="
M657.969543,274.652100 
	C657.525696,274.708252 656.941467,274.496765 656.290527,273.960754 
	C656.758911,273.885681 657.294067,274.135071 657.969543,274.652100 
z"/>
<path fill="#4B82B0" opacity="1.000000" stroke="none" 
	d="
M787.747070,491.261780 
	C788.131653,491.406952 788.533447,491.885803 788.960999,492.692719 
	C788.579285,492.545685 788.171753,492.070587 787.747070,491.261780 
z"/>
<path fill="#4B82B0" opacity="1.000000" stroke="none" 
	d="
M613.916382,255.546539 
	C614.380432,255.427292 614.998779,255.569168 615.694458,256.045624 
	C615.204834,256.189362 614.637695,255.998505 613.916382,255.546539 
z"/>
<path fill="#FCE8D1" opacity="1.000000" stroke="none" 
	d="
M418.155457,791.958862 
	C418.132233,791.758667 418.559784,791.764038 418.762207,791.831604 
	C418.702667,791.985840 418.440674,792.072449 418.155457,791.958862 
z"/>
<path fill="#FCE8D1" opacity="1.000000" stroke="none" 
	d="
M421.102509,792.528564 
	C421.295532,792.241882 421.580231,792.310547 421.930817,792.773010 
	C421.739349,792.983643 421.471832,792.889343 421.102509,792.528564 
z"/>
<path fill="#4B82B0" opacity="1.000000" stroke="none" 
	d="
M635.215088,259.408081 
	C634.972107,259.554474 634.630737,259.443756 634.193909,259.063843 
	C634.437805,258.913422 634.777283,259.032196 635.215088,259.408081 
z"/>
<path fill="#FCE8D1" opacity="1.000000" stroke="none" 
	d="
M437.164734,798.193115 
	C437.355133,798.064148 437.678162,798.183655 438.175873,798.500000 
	C437.999481,798.611755 437.648468,798.526611 437.164734,798.193115 
z"/>
<path fill="#4B82B0" opacity="1.000000" stroke="none" 
	d="
M615.825989,256.510956 
	C616.048767,256.387146 616.384583,256.514587 616.836792,256.896271 
	C616.615051,257.021088 616.277100,256.891632 615.825989,256.510956 
z"/>
<path fill="#F0AB56" opacity="1.000000" stroke="none" 
	d="
M307.693787,728.245483 
	C307.769043,728.229187 307.756836,728.257812 307.759918,728.239136 
	C307.763000,728.220459 307.618561,728.261780 307.693787,728.245483 
z"/>
<path fill="#FCE8D1" opacity="1.000000" stroke="none" 
	d="
M386.105042,778.554810 
	C386.296478,778.270020 386.566589,778.336243 386.881104,778.799683 
	C386.691376,778.993347 386.444092,778.896362 386.105042,778.554810 
z"/>
<path fill="#FCE8D1" opacity="1.000000" stroke="none" 
	d="
M344.738403,755.054382 
	C345.001282,755.008240 345.081879,755.466736 345.104919,755.698059 
	C344.796814,755.960571 344.505829,755.867126 344.114136,755.465332 
	C344.140778,755.221191 344.308136,755.160828 344.738403,755.054382 
z"/>
<path fill="#FCE8D1" opacity="1.000000" stroke="none" 
	d="
M342.102905,754.241577 
	C342.170074,753.972412 342.337433,753.939392 342.757782,753.867615 
	C343.028076,754.015991 343.045349,754.203125 343.072571,754.671631 
	C342.789368,754.794678 342.496246,754.636230 342.102905,754.241577 
z"/>
<path fill="#F0AB56" opacity="1.000000" stroke="none" 
	d="
M337.795624,739.806763 
	C337.741211,739.988831 337.464661,740.088440 337.145599,739.985352 
	C337.103088,739.782715 337.573456,739.724243 337.795624,739.806763 
z"/>
<path fill="#F0AB56" opacity="1.000000" stroke="none" 
	d="
M310.542114,719.868896 
	C310.519989,719.979309 310.332153,719.783020 310.280823,719.750977 
	C310.229523,719.718994 310.564270,719.758423 310.542114,719.868896 
z"/>
<path fill="#4B82B0" opacity="1.000000" stroke="none" 
	d="
M661.253845,277.389160 
	C660.997070,277.516846 660.657959,277.391724 660.276367,276.976013 
	C660.546509,276.835785 660.858948,276.986084 661.253845,277.389160 
z"/>
<path fill="#E2A15B" opacity="1.000000" stroke="none" 
	d="
M753.430115,689.422729 
	C753.301514,689.177002 753.461426,688.787964 753.924072,688.283203 
	C754.057495,688.538147 753.888062,688.908752 753.430115,689.422729 
z"/>
<path fill="#E2A15B" opacity="1.000000" stroke="none" 
	d="
M757.407471,685.118835 
	C757.354126,684.870239 757.595581,684.553040 758.143921,684.176392 
	C758.201294,684.427979 757.951721,684.739075 757.407471,685.118835 
z"/>
<path fill="#E2A15B" opacity="1.000000" stroke="none" 
	d="
M760.344482,682.183044 
	C760.263733,681.982605 760.432800,681.636963 760.868042,681.163696 
	C760.954285,681.370056 760.774353,681.703979 760.344482,682.183044 
z"/>
<path fill="#4B82B0" opacity="1.000000" stroke="none" 
	d="
M665.192566,280.511719 
	C664.955383,280.622772 664.622559,280.472931 664.207764,280.048065 
	C664.449585,279.932281 664.773193,280.091522 665.192566,280.511719 
z"/>
<path fill="#4B82B0" opacity="1.000000" stroke="none" 
	d="
M666.259888,281.416382 
	C666.004578,281.540680 665.662842,281.407135 665.269104,280.983215 
	C665.535828,280.848083 665.854675,281.003296 666.259888,281.416382 
z"/>
<path fill="#4B82B0" opacity="1.000000" stroke="none" 
	d="
M667.293701,282.269287 
	C667.028564,282.413818 666.686096,282.319733 666.331055,281.927124 
	C666.617798,281.762634 666.917053,281.896637 667.293701,282.269287 
z"/>
<path fill="#2E82C4" opacity="1.000000" stroke="none" 
	d="
M537.956543,247.132965 
	C539.436218,248.091583 540.915894,249.050186 543.184082,250.519623 
	C541.120728,250.728699 539.767517,250.961731 538.410217,250.988937 
	C517.486511,251.408524 496.572205,251.930878 475.877136,255.522995 
	C475.133575,255.652023 474.223389,255.661575 473.575806,255.346588 
	C471.562531,254.367310 469.638428,253.204727 467.490723,252.007935 
	C472.113586,251.618591 477.041992,251.202499 481.970703,250.789993 
	C482.460907,250.748947 482.981720,250.824966 483.439941,250.686523 
	C496.254456,246.814316 509.252502,247.521332 522.319397,248.903931 
	C524.424866,249.126724 526.650513,248.214111 529.362976,247.421326 
	C532.589050,247.055206 535.272827,247.094086 537.956543,247.132965 
z"/>
<path fill="#718D90" opacity="1.000000" stroke="none" 
	d="
M538.367493,247.084518 
	C535.272827,247.094086 532.589050,247.055206 529.457520,247.034271 
	C525.341187,246.700378 521.674438,246.328690 518.003479,246.005219 
	C516.214294,245.847549 514.417175,245.779861 512.312866,245.404510 
	C518.184265,239.924484 529.679016,239.471603 536.630371,243.999725 
	C538.186890,245.013626 540.117920,245.452637 541.979248,246.497803 
	C540.980774,246.904892 539.879639,246.970490 538.367493,247.084518 
z"/>
<path fill="#FDFDFC" opacity="1.000000" stroke="none" 
	d="
M253.001648,644.704468 
	C252.309891,644.618469 251.640320,644.175842 250.965546,643.356689 
	C251.648178,643.436096 252.335999,643.891968 253.001648,644.704468 
z"/>
<path fill="#FDFDFC" opacity="1.000000" stroke="none" 
	d="
M251.154938,642.717590 
	C250.496078,642.412415 249.981628,641.779785 249.705978,641.008423 
	C250.396317,641.376526 250.847824,641.883362 251.154938,642.717590 
z"/>
<path fill="#F0AB56" opacity="1.000000" stroke="none" 
	d="
M350.807678,757.993774 
	C350.373291,758.051086 349.822418,757.805908 349.109131,757.303467 
	C349.528168,757.261292 350.109680,757.476318 350.807678,757.993774 
z"/>
<path fill="#718D90" opacity="1.000000" stroke="none" 
	d="
M743.063538,688.061340 
	C744.174316,686.415894 745.285156,684.770447 746.759277,683.119324 
	C747.122681,683.113647 747.166870,683.557129 747.128296,684.023315 
	C747.075012,684.663452 747.060425,684.837341 747.045898,685.011169 
	C747.045898,685.011169 746.997986,684.997192 746.714783,685.147461 
	C745.980225,686.205933 745.528870,687.114136 745.077515,688.022400 
	C744.880188,688.068420 744.682800,688.114441 743.995667,688.157288 
	C743.505859,688.154175 743.063538,688.061340 743.063538,688.061340 
z"/>
<path fill="#E2A15B" opacity="1.000000" stroke="none" 
	d="
M745.410400,687.957764 
	C745.528870,687.114136 745.980225,686.205933 746.722046,685.171265 
	C746.589539,685.994263 746.166443,686.943665 745.410400,687.957764 
z"/>
<path fill="#718D90" opacity="1.000000" stroke="none" 
	d="
M747.377563,683.003113 
	C747.290710,682.215149 747.457031,681.331970 747.936584,680.527832 
	C748.509583,680.827942 748.769287,681.049072 749.029053,681.270203 
	C748.562988,681.816101 748.096924,682.362000 747.377563,683.003113 
z"/>
<path fill="#FDFDFC" opacity="1.000000" stroke="none" 
	d="
M749.345459,681.068604 
	C748.769287,681.049072 748.509583,680.827942 748.231567,680.347839 
	C748.645935,679.768555 749.078613,679.448303 749.772705,679.050781 
	C749.909973,679.604675 749.785950,680.235901 749.345459,681.068604 
z"/>
<path fill="#E2A15B" opacity="1.000000" stroke="none" 
	d="
M747.281006,684.994141 
	C747.060425,684.837341 747.075012,684.663452 747.174133,684.241455 
	C747.610840,684.199951 747.963074,684.406555 748.315308,684.613098 
	C748.048889,684.734436 747.782532,684.855713 747.281006,684.994141 
z"/>
<path fill="#E2A15B" opacity="1.000000" stroke="none" 
	d="
M743.057922,688.045837 
	C743.063538,688.061340 743.505859,688.154175 743.707825,688.255005 
	C743.797241,688.577820 743.639038,688.760071 743.280029,689.002808 
	C743.125000,689.103027 743.070374,689.059875 743.079956,688.797729 
	C743.089478,688.535583 743.062134,688.050781 743.062134,688.050781 
	C743.062134,688.050781 743.052307,688.030334 743.057922,688.045837 
z"/>
<path fill="#FDFDFC" opacity="1.000000" stroke="none" 
	d="
M750.338013,679.124146 
	C750.132568,678.702209 750.287903,678.366028 750.729126,677.996582 
	C750.909546,678.378845 750.804199,678.794312 750.338013,679.124146 
z"/>
<path fill="#4284BA" opacity="1.000000" stroke="none" 
	d="
M788.386902,489.000824 
	C787.801575,487.177856 787.580078,485.367859 787.366455,483.556915 
	C786.908508,479.675262 786.454529,475.793182 785.998291,471.458435 
	C786.562439,469.526245 787.127319,468.046906 787.692200,466.567566 
	C788.116272,466.473083 788.540405,466.378571 788.964478,466.284058 
	C789.502258,469.315765 790.039978,472.347443 790.644470,475.755432 
	C791.929871,475.386414 793.208740,475.019287 794.263428,474.716522 
	C794.846741,479.886353 795.894714,484.997711 795.840881,490.097443 
	C795.801941,493.783600 794.299561,497.454285 792.930969,501.001221 
	C790.694580,497.018036 795.160645,491.416138 788.386902,489.000824 
z"/>
<path fill="#4284BA" opacity="1.000000" stroke="none" 
	d="
M794.997559,513.639160 
	C794.997559,509.212860 794.997559,505.232697 794.997559,501.252563 
	C795.367981,501.253174 795.738342,501.253784 796.108765,501.254395 
	C796.108765,506.816467 796.108765,512.378540 796.108765,517.940552 
	C795.738342,517.941956 795.367981,517.943359 794.997559,517.944702 
	C794.997559,516.658264 794.997559,515.371765 794.997559,513.639160 
z"/>
<path fill="#E0707D" opacity="1.000000" stroke="none" 
	d="
M604.384888,801.009583 
	C604.911560,800.530701 605.762268,800.043579 606.792358,799.825439 
	C606.217529,800.396729 605.463257,800.699036 604.384888,801.009583 
z"/>
<path fill="#4483B4" opacity="1.000000" stroke="none" 
	d="
M776.335144,616.955322 
	C776.785339,615.748413 777.587952,614.513672 778.684692,613.134521 
	C779.522583,613.440735 780.066345,613.891418 780.610229,614.342163 
	C779.302673,615.203918 777.995117,616.065613 776.335144,616.955322 
z"/>
<path fill="#718D90" opacity="1.000000" stroke="none" 
	d="
M741.721924,689.104492 
	C741.369934,690.124146 740.652893,691.136047 739.647705,692.264160 
	C740.025391,691.285889 740.691101,690.191345 741.721924,689.104492 
z"/>
<path fill="#718D90" opacity="1.000000" stroke="none" 
	d="
M742.812866,688.132812 
	C743.062134,688.050781 743.089478,688.535583 743.053040,688.775574 
	C743.016602,689.015564 742.561707,689.123901 742.328491,689.119629 
	C742.251343,688.815125 742.407471,688.514954 742.812866,688.132812 
z"/>
<path fill="#E4A057" opacity="1.000000" stroke="none" 
	d="
M740.614746,697.009521 
	C740.994690,698.064697 740.994263,699.124451 740.985718,700.580933 
	C739.711304,700.429382 738.445068,699.881104 737.178772,699.332886 
	C738.197327,698.559998 739.215881,697.787048 740.614746,697.009521 
z"/>
<path fill="#E4A057" opacity="1.000000" stroke="none" 
	d="
M734.466797,702.986572 
	C735.048706,702.589355 735.626892,702.491882 736.205200,702.394409 
	C736.200012,702.803406 736.194885,703.212402 736.189697,703.621399 
	C735.614136,703.509705 735.038574,703.398010 734.466797,702.986572 
z"/>
</svg>